<svg width="136" height="135" viewBox="0 0 136 135" fill="none" xmlns="http://www.w3.org/2000/svg">
<g id="Logos_empresas">
<g id="Vector">
<path fill-rule="evenodd" clip-rule="evenodd" d="M69.0152 62.2306V66.296C59.4841 62.3723 59.2589 76.6598 69.0152 72.6854V76.7508C48.7408 83.6041 49.003 55.4998 69.0152 62.2306Z" fill="#024F3C"/>
<path d="M29.244 63.1651C29.244 63.1651 27.7733 61.7825 25.7556 61.2418C23.6112 60.6677 19.3241 61.5743 17.3415 57.9691C16.3493 56.1473 16.6554 54.1365 15.6632 52.5789C15.6632 52.5789 17.3802 53.3752 19.8219 53.6412C21.4544 53.818 29.2845 54.3973 29.2458 63.1633L29.244 63.1651Z" fill="#024F3C"/>
<path d="M40.6768 55.4526H33.3517V77.2636H40.6768V55.4526Z" fill="#024F3C"/>
<path d="M51.1052 62.0818H44.3394V77.2636H51.1052V62.0818Z" fill="#024F3C"/>
<path d="M51.1052 55.4526H44.3394V60.3107H51.1052V55.4526Z" fill="#024F3C"/>
<path d="M117.413 61.9925C116.309 62.5281 115.575 63.2368 115.137 63.7619V62.031H107.812V83.8421H115.137V75.2248C115.582 75.7533 116.328 76.4901 117.413 77.0974C119.245 78.1229 126.417 78.3504 126.684 70.9861V68.102C126.417 60.7395 119.575 60.9425 117.413 61.9908V61.9925ZM119.663 69.7733C119.663 72.3547 118.481 73.0757 116.954 73.0757C115.427 73.0757 115.047 71.6704 115.047 71.6704V67.7608C115.047 67.7608 115.429 66.3572 116.954 66.3572C118.479 66.3572 119.663 67.0782 119.663 69.6596V69.7733Z" fill="#024F3C"/>
<path d="M24.8179 61.6128C21.5072 60.96 15.3184 61.9173 14.365 62.8273V66.5095H15.2041C15.2041 66.5095 17.2254 64.8767 19.4384 65.0289C21.6514 65.1812 23.6727 66.205 23.7114 68.1038C23.7114 68.1038 17.0354 66.1437 14.3263 69.7366C11.8089 73.0757 12.9154 77.2129 17.3028 77.7431C21.9364 78.3049 23.5971 75.4278 23.5971 75.4278L23.6604 75.3718V77.2619H30.2995V66.926C30.2995 66.926 30.1975 62.6751 24.8179 61.6128ZM23.8258 72.6189C23.8258 72.6189 22.9867 74.2518 21.041 74.2518C19.0954 74.2518 18.2176 69.9623 23.8258 70.8356V72.6189Z" fill="#024F3C"/>
<path d="M100.626 63.6499C100.021 64.8224 99.447 65.2214 99.2518 65.3299V62.031H92.486V77.2129H99.2518V71.1104C100.276 68.9403 101.21 68.543 101.871 68.1038C102.559 67.6488 105.356 67.5595 105.356 67.5595V61.5253C102.457 61.5253 101.567 61.828 100.626 63.6499Z" fill="#024F3C"/>
<path d="M80.3038 61.373C75.0509 61.373 70.792 63.6744 70.792 69.6211C70.792 76.4288 75.0509 77.8709 80.3038 77.8709C85.5567 77.8709 89.8174 76.4288 89.8174 69.6211C89.8174 63.5239 85.5584 61.373 80.3038 61.373ZM80.3038 73.6445C79.1093 73.6445 78.7522 71.8437 78.7522 69.6211C78.7522 67.3985 79.1586 65.5977 80.3038 65.5977C81.449 65.5977 81.8554 67.3985 81.8554 69.6211C81.8554 71.8437 81.4983 73.6445 80.3038 73.6445Z" fill="#024F3C"/>
</g>
</g>
</svg>
