<svg width="136" height="135" viewBox="0 0 136 135" fill="none" xmlns="http://www.w3.org/2000/svg">
<g id="Logos_empresas">
<g id="Vector">
<path fill-rule="evenodd" clip-rule="evenodd" d="M19.1841 55.4211V77.1522H29.2875C30.7324 77.1522 32.9751 76.9874 34.0965 76.1745C34.8999 75.6857 35.5414 75.032 36.0212 74.0486C36.3448 73.2301 36.6628 72.2523 36.6628 71.269V70.9393C36.501 68.3245 35.3796 67.0171 32.4953 66.0394C34.5819 65.3857 36.183 63.5894 36.183 61.1395C36.183 59.1784 35.3796 57.871 34.4201 56.8933C33.2987 55.9156 31.692 55.4211 30.0908 55.4211H19.1841ZM25.12 73.2301V68.1653H28.1661C29.1257 68.1653 29.9291 68.495 30.2526 68.819C30.7324 69.3079 30.8942 69.9616 30.8942 70.6153C30.8942 71.4338 30.7324 71.9227 30.2526 72.4115C29.9346 72.9004 29.1313 73.2301 28.1661 73.2301H25.12ZM28.0043 63.9191H25.12V59.6729H28.0043C28.8077 59.6729 29.4493 59.8378 29.7673 60.1618C30.0853 60.6506 30.4088 61.1395 30.4088 61.7932C30.4088 62.4469 30.0853 62.9357 29.7673 63.4246C29.4437 63.7486 28.8077 63.9134 28.0043 63.9134V63.9191Z" fill="#024F3C"/>
<path fill-rule="evenodd" clip-rule="evenodd" d="M103.688 77.3114L104.011 73.0652C104.971 73.7189 105.936 74.0429 106.896 74.2078C111.387 75.5152 113.311 72.2467 109.624 71.4281C107.699 70.9393 105.774 70.7744 104.335 68.9782C103.855 68.1596 103.693 67.3468 103.693 66.3634C103.693 65.38 103.855 64.4023 104.335 63.5837C104.815 62.9301 105.618 62.2764 106.421 61.9467C109.629 60.3153 114.6 61.1281 116.201 62.1115L115.721 65.8688C114.762 65.0503 109.306 63.4189 108.826 65.8688C108.508 66.6874 109.947 67.1762 110.589 67.3411C112.19 67.5059 113.473 67.8299 114.277 68.3188C120.369 71.0927 117.161 81.5519 103.693 77.3057L103.688 77.3114Z" fill="#024F3C"/>
<path fill-rule="evenodd" clip-rule="evenodd" d="M96.4798 77.8059V74.2134C94.7169 79.443 87.3416 78.7893 85.5786 75.6857C84.7753 74.708 84.4573 73.0709 84.4573 70.945V61.1395H90.0696V69.6376C89.7516 75.1911 96.3236 74.2134 96.1618 68.495V61.3043H101.774V77.8059H96.4798Z" fill="#024F3C"/>
<path fill-rule="evenodd" clip-rule="evenodd" d="M70.8168 73.2301L70.9786 77.3171C66.0078 78.6245 59.7539 78.2948 57.5112 72.7412C57.1932 71.7635 57.0314 70.4561 57.0314 68.9839C57.1932 62.1229 64.8865 59.1784 70.8224 61.7932L70.5044 65.8802C69.0595 64.9025 65.0538 64.2488 63.4471 66.6988C63.1235 67.3525 62.8055 68.171 62.8055 69.3136C62.8055 70.4561 63.1235 71.2746 63.4471 71.7635C64.7303 73.3949 66.3314 74.5431 70.8224 73.2357L70.8168 73.2301Z" fill="#024F3C"/>
<path fill-rule="evenodd" clip-rule="evenodd" d="M47.4078 73.8838C46.928 74.0486 46.4482 74.0486 46.1246 73.8838C45.6448 73.8838 45.165 73.7189 44.8415 73.3949C44.6797 73.0709 44.5179 72.7412 44.5179 72.2523C44.5179 71.7635 44.6797 71.4338 44.9977 71.1098C45.3213 70.4561 46.119 70.1321 47.0842 70.1321H50.1303C49.9685 72.9117 48.6853 73.7246 47.4022 73.8894L47.4078 73.8838ZM47.4078 67.1876C43.2403 67.3525 39.2291 68.1653 39.2291 73.0709C39.2291 76.6634 42.755 77.8059 45.483 77.8059C46.2864 77.8059 46.7662 77.6411 47.4078 77.4762C48.6909 77.1522 49.3325 76.3337 50.6156 75.0263C50.6156 75.3503 50.4538 77.3114 50.4538 77.4762H55.5864C55.4246 76.1689 55.2684 75.1911 55.4246 73.8838V66.8579C55.4246 64.2431 53.4999 61.7932 50.9336 61.1395C50.1303 60.9746 48.8471 60.8098 47.4078 60.8098C45.3213 60.8098 43.0785 60.9746 41.3156 61.9523V65.7097C42.5987 65.056 45.165 64.4023 47.4078 64.5671C49.0089 64.732 50.2921 65.3857 50.2921 67.1819H47.4078V67.1876Z" fill="#024F3C"/>
<path fill-rule="evenodd" clip-rule="evenodd" d="M69.6955 69.143L75.4697 61.3043H81.8798L76.1112 69.143H69.6955Z" fill="#024F3C"/>
<path fill-rule="evenodd" clip-rule="evenodd" d="M69.5337 69.143C75.6259 70.4504 74.8225 74.8615 78.1922 77.9651C80.1169 79.9262 87.1742 82.2113 91.1798 80.2502C85.891 79.5965 84.6079 77.8003 82.3596 73.8781C80.9147 71.593 79.4753 69.9559 76.1056 69.143H69.5281H69.5337Z" fill="#024F3C"/>
</g>
</g>
</svg>
