<svg width="136" height="135" viewBox="0 0 136 135" fill="none" xmlns="http://www.w3.org/2000/svg">
<g id="Logos_empresas">
<g id="Vector">
<path d="M13.7322 59.093C14.3627 62.6587 16.6694 64.7613 19.7484 65.9156C22.2232 63.7154 23.6577 60.9029 23.0271 57.3426C22.3966 53.7823 18.7343 48.9431 16.3593 46.8947C14.7515 49.6747 13.0964 55.5381 13.7322 59.093Z" fill="#024F3C"/>
<path d="M2.64544 58.5999C3.25495 61.0547 5.50382 65.2328 7.76845 66.8314C10.0331 68.43 12.4343 68.2728 14.7515 67.1511C14.9302 64.512 14.2051 62.1439 11.9457 60.5453C9.99105 59.1689 6.30248 58.5511 3.76988 58.5511C3.36004 58.5511 2.98172 58.5673 2.64544 58.5999Z" fill="#024F3C"/>
<path d="M7.2325 70.1966C5.33568 70.5434 2.74002 72.6135 1.63135 73.952C3.11308 74.8732 6.24468 75.827 8.14676 75.4747C10.0488 75.1225 11.1785 73.8219 11.7986 72.077C10.8107 70.8848 9.59172 70.1153 8.09422 70.1153C7.81574 70.1153 7.52675 70.1424 7.22725 70.1966" fill="#024F3C"/>
<path d="M31.4867 63.1356C28.0345 63.7859 25.9906 66.1594 24.8767 69.3295C27.01 71.8928 29.737 73.3613 33.1891 72.711C36.6412 72.0553 41.3701 68.3812 43.3195 65.8451C41.0128 64.512 36.5256 62.9947 33.1155 62.9947C32.5375 62.9947 31.9858 63.038 31.4867 63.1356Z" fill="#024F3C"/>
<path d="M25.3286 74.5752C25.234 77.2143 26.0326 79.5499 28.3498 81.0726C30.6617 82.6008 35.2698 83.0939 37.7026 82.7092C36.9617 80.3356 34.6393 76.1738 32.3169 74.651C31.1977 73.9141 30.0575 73.5889 28.9225 73.5889C27.714 73.5889 26.5055 73.952 25.3286 74.5752Z" fill="#024F3C"/>
<path d="M20.3947 84.0639C20.7993 85.9606 22.7959 88.5021 24.1463 89.5263C24.9082 88.009 25.7384 84.8388 25.3391 82.9422C24.9292 81.0455 23.6577 79.9671 21.992 79.4144C20.7047 80.6391 19.9954 82.1673 20.3947 84.0639Z" fill="#024F3C"/>
<path d="M10.9368 80.8125C10.0751 82.1239 9.78087 84.7901 9.91223 86.1773C11.2416 85.8143 13.4957 84.5083 14.3627 83.1969C15.2191 81.8909 15.1298 80.4982 14.5098 79.1705C14.3837 79.1651 14.2628 79.1597 14.1367 79.1597C12.8599 79.1597 11.725 79.6149 10.9368 80.8125Z" fill="#024F3C"/>
<path d="M22.9641 55.7223C20.5733 59.326 20.8991 63.2006 22.6909 66.9668C26.7472 67.3299 30.3622 66.2353 32.753 62.6316C35.1437 59.0225 35.8846 51.5985 35.459 47.7022C31.7021 48.6126 25.3548 52.1133 22.9641 55.7169" fill="#024F3C"/>
<path d="M23.0009 57.3481C22.9326 56.9579 22.8275 56.5569 22.6909 56.1396C21.1881 58.6378 20.9412 61.266 21.5664 63.8834C22.8485 62.0518 23.4527 59.895 23.0009 57.3481Z" fill="#024F3C"/>
<path d="M32.4745 63.0164C32.1224 63.038 31.7862 63.076 31.4657 63.1302C28.9751 63.607 27.2201 64.9781 26.0221 66.8964C28.56 66.5171 30.7878 65.3303 32.4745 63.011" fill="#024F3C"/>
<path d="M75.3344 62.9839C76.2802 62.2794 76.5534 61.2931 76.4325 60.1985C75.4079 59.7812 74.3623 59.7595 73.4113 60.4586C72.4602 61.1631 71.588 62.9568 71.3411 63.9593C72.4077 64.0351 74.3833 63.6829 75.3344 62.9839Z" fill="#024F3C"/>
<path d="M65.4772 78.4931L65.3931 78.5473C63.6539 79.6149 61.8779 80.1405 59.9548 80.1405C54.7688 80.1405 51.2851 76.4773 51.2851 71.0311C51.2851 65.585 55.1734 61.6345 60.5276 61.6345C62.2457 61.6345 63.8851 62.003 65.0463 62.6479L65.1094 62.6804V62.7508L65.0516 65.4604V65.6717L64.8782 65.5579C63.4805 64.6692 62.1512 64.2736 60.5591 64.2736C56.3871 64.2736 54.5061 67.5575 54.5061 70.8089C54.5061 74.7378 56.8653 77.3768 60.3699 77.3768C61.7676 77.3768 63.1495 76.9921 64.4841 76.2226L64.5997 76.1575L64.647 76.2876L65.4352 78.401M78.1297 78.9483C78.1297 78.9483 78.2033 76.8241 78.2033 75.5723V70.5813C78.2033 67.0319 76.1908 65.7313 73.1696 65.7313C71.4356 65.7313 69.8698 66.0835 68.1622 67.292L69.171 69.2212C69.9802 68.6793 71.0731 68.1265 72.6126 68.1265C74.1521 68.1265 75.2398 68.8147 75.2398 70.7222V71.1287L72.7755 71.2154C69.3602 71.3617 67.3215 72.917 67.3215 75.7186C67.3215 76.228 67.4108 76.7807 67.5737 77.2576C68.2042 79.0621 69.9592 79.9292 71.8192 80.0159C74.231 80.1243 78.135 79.0025 78.135 78.9538M75.3449 77.133C75.3449 77.133 74.3045 77.6803 72.4077 77.6803C71.0888 77.6803 70.2376 76.694 70.2376 75.4856C70.2376 74.2771 71.1046 73.4914 73.0908 73.4372L75.3449 73.3451V77.133ZM90.1622 59.9655C89.0956 59.9655 88.2864 60.8 88.2864 61.8404C88.2864 62.8809 89.0956 63.71 90.1622 63.71C91.2288 63.71 92.0012 62.8484 92.0012 61.8404C92.0012 60.7729 91.1973 59.9655 90.1622 59.9655ZM91.6124 66.0835H88.7067V79.7233H91.6124V66.0835ZM106.13 78.9538V59.2989H103.219V65.9047C102.72 65.8126 102.158 65.7259 101.375 65.7259C97.2661 65.7259 94.2186 68.7876 94.2186 73.0253C94.2186 77.6695 97.4027 80.0051 101.296 80.0051C103.393 80.0051 105.043 79.5444 106.135 78.9429M103.225 77.2359C102.836 77.3822 102.189 77.496 101.606 77.496C98.7216 77.496 97.1295 75.5343 97.1295 72.8573C97.1295 69.9744 99.0316 68.2078 101.496 68.2078C102.337 68.2078 102.752 68.2945 103.225 68.4408V77.2413V77.2359ZM120.264 78.9429V59.2989H117.354V65.9047C116.844 65.8126 116.287 65.7259 115.504 65.7259C111.39 65.7259 108.342 68.7876 108.342 73.0253C108.342 77.6695 111.532 80.0051 115.42 80.0051C117.516 80.0051 119.166 79.5444 120.259 78.9429M117.348 77.2359C116.959 77.3822 116.313 77.496 115.725 77.496C112.845 77.496 111.248 75.5343 111.248 72.8573C111.248 69.9744 113.145 68.2078 115.614 68.2078C116.455 68.2078 116.875 68.2945 117.348 68.4408V77.2413V77.2359ZM133.716 78.9429C133.716 78.9429 133.789 76.8187 133.789 75.5669V70.5759C133.789 67.0265 131.772 65.7259 128.756 65.7259C127.022 65.7259 125.451 66.0781 123.748 67.2866L124.752 69.2157C125.561 68.6738 126.654 68.1211 128.193 68.1211C129.733 68.1211 130.826 68.8093 130.826 70.7168V71.1233L128.361 71.21C124.946 71.3563 122.907 72.9115 122.907 75.7132C122.907 76.2226 122.997 76.7753 123.165 77.2522C123.785 79.0567 125.535 79.9238 127.405 80.0105C129.812 80.1189 133.716 78.9971 133.716 78.9483M130.931 77.1275C130.931 77.1275 129.89 77.6749 127.994 77.6749C126.675 77.6749 125.824 76.6886 125.824 75.4802C125.824 74.2717 126.691 73.486 128.677 73.4318L130.931 73.3396V77.1275ZM86.1216 79.4035L85.759 77.1817C85.3597 77.2955 85.0812 77.2955 84.8868 77.2955C84.1617 77.2955 83.9358 76.9487 83.9358 75.8541V59.2935H81.0301V77.1546C81.0301 78.7695 81.813 80.0051 83.7992 80.0051C84.5505 80.0051 85.2862 79.8587 86.1216 79.3981" fill="#024F3C"/>
</g>
</g>
</svg>
