<svg width="129" height="105" viewBox="0 0 129 105" fill="none" xmlns="http://www.w3.org/2000/svg">
<g id="Capa_1" clip-path="url(#clip0_227_160)">
<path id="Vector" d="M72.7408 0.749268H9.95183C4.86913 0.749268 0.748779 4.87225 0.748779 9.95822V37.8698C0.748779 42.9558 4.86913 47.0787 9.95183 47.0787H72.7408C77.8235 47.0787 81.9438 42.9558 81.9438 37.8698V9.95822C81.9438 4.87225 77.8235 0.749268 72.7408 0.749268Z" fill="#55E8C3"/>
<path id="Vector_2" d="M49.7144 42.9277C49.7144 42.9277 51.272 47.3711 48.0745 51.7095C44.877 56.048 51.7063 55.6284 56.8657 52.294C64.5561 47.3261 63.8522 33.936 63.8522 33.936L49.7144 42.9202V42.9277Z" fill="#55E8C3"/>
<path id="Vector_3" d="M24.5465 33.2391C27.3132 33.2391 29.5561 30.9947 29.5561 28.2262C29.5561 25.4577 27.3132 23.2134 24.5465 23.2134C21.7798 23.2134 19.5369 25.4577 19.5369 28.2262C19.5369 30.9947 21.7798 33.2391 24.5465 33.2391Z" fill="#128266"/>
<path id="Vector_4" d="M41.35 28.2264C44.1167 28.2264 46.3596 25.982 46.3596 23.2135C46.3596 20.445 44.1167 18.2007 41.35 18.2007C38.5832 18.2007 36.3403 20.445 36.3403 23.2135C36.3403 25.982 38.5832 28.2264 41.35 28.2264Z" fill="#128266"/>
<path id="Vector_5" d="M58.1461 23.2134C60.9129 23.2134 63.1557 20.9691 63.1557 18.2006C63.1557 15.4321 60.9129 13.1877 58.1461 13.1877C55.3794 13.1877 53.1365 15.4321 53.1365 18.2006C53.1365 20.9691 55.3794 23.2134 58.1461 23.2134Z" fill="#128266"/>
<path id="Vector_6" d="M0.748825 33.9884C0.336971 33.9884 0 33.6513 0 33.2391V9.95825C0 4.46585 4.46299 0 9.95188 0H28.2307C28.6425 0 28.9795 0.337187 28.9795 0.749304C28.9795 1.16142 28.6425 1.49861 28.2307 1.49861H9.95188C5.29419 1.49861 1.49765 5.29758 1.49765 9.95825V33.2391C1.49765 33.6513 1.16068 33.9884 0.748825 33.9884Z" fill="#024F3C"/>
<path id="Vector_7" d="M66.0089 1.49861H47.2583C46.8465 1.49861 46.5095 1.16142 46.5095 0.749304C46.5095 0.337187 46.8465 0 47.2583 0H66.0089C66.4208 0 66.7577 0.337187 66.7577 0.749304C66.7577 1.16142 66.4208 1.49861 66.0089 1.49861Z" fill="#024F3C"/>
<g id="Group">
<path id="Vector_8" d="M109.424 44.8253L59.4242 64.4224C56.3012 65.6464 54.7612 69.172 55.9844 72.297L67.2719 101.133C68.4952 104.258 72.0185 105.799 75.1415 104.575L125.141 84.9775C128.264 83.7534 129.804 80.2279 128.581 77.1029L117.293 48.2673C116.07 45.1423 112.547 43.6013 109.424 44.8253Z" fill="#FFB9BA"/>
<path id="Vector_9" d="M88.5709 78.6618C87.5001 78.6618 86.4143 78.5344 85.3435 78.2647L62.3696 72.525C61.9203 72.4126 61.6507 71.9555 61.763 71.5059C61.8753 71.0564 62.3321 70.7866 62.7814 70.899L85.7553 76.6387C90.6152 77.8525 95.6773 75.8294 98.3655 71.6033L110.781 52.099C111.028 51.7093 111.545 51.5969 111.934 51.8442C112.324 52.0915 112.436 52.6085 112.189 52.9981L99.7733 72.5025C97.2947 76.3989 93.0414 78.6618 88.5709 78.6618Z" fill="#024F3C"/>
<path id="Vector_10" d="M120.883 77.4254C120.793 77.4254 120.695 77.4104 120.598 77.373L103.143 71.1238C102.709 70.9664 102.484 70.4869 102.634 70.0523C102.784 69.6177 103.27 69.3854 103.705 69.5427L121.16 75.7919C121.594 75.9493 121.819 76.4288 121.669 76.8634C121.549 77.2081 121.227 77.4179 120.883 77.4179V77.4254Z" fill="#024F3C"/>
<path id="Vector_11" d="M72.3739 96.4353C72.2466 96.4353 72.1118 96.4053 71.9845 96.3379C71.5726 96.1206 71.4154 95.6185 71.6325 95.2064L80.2066 78.7592C80.4237 78.3471 80.9254 78.1897 81.3373 78.407C81.7491 78.6243 81.9064 79.1263 81.6892 79.5385L73.1152 95.9857C72.9654 96.2704 72.6734 96.4353 72.3739 96.4353Z" fill="#024F3C"/>
</g>
</g>
<defs>
<clipPath id="clip0_227_160">
<rect width="129" height="105" fill="white"/>
</clipPath>
</defs>
</svg>
