<svg width="111" height="27" viewBox="0 0 111 27" fill="none" xmlns="http://www.w3.org/2000/svg">
<g id="Entel" clip-path="url(#clip0_167_539)">
<g id="Group">
<path id="Vector" d="M108.834 21.9327C105.933 21.9327 104.711 19.9339 104.711 17.9624V2.96092H108.238V17.7497C108.238 18.5759 108.589 19.0014 109.485 19.0014H110.841V21.9327H108.834Z" fill="#024F3C"/>
<path id="Vector_2" d="M6.49895 15.5037C6.49895 18.8876 8.58048 21.3613 12.2877 21.3613C15.1826 21.3613 16.6031 20.5536 18.2791 18.8876L22.2911 22.7762C19.6001 25.4527 17.0098 26.9171 12.2373 26.9171C5.99146 26.9159 0 24.0885 0 13.4332C0 4.84837 4.67177 0 11.5258 0C18.8886 0 23.0517 5.353 23.0517 12.5748V15.5037H6.49895ZM15.9432 8.18163C15.2318 6.6158 13.7597 5.45442 11.5258 5.45442C9.29193 5.45442 7.81864 6.6158 7.10841 8.18163C6.70169 9.14141 6.55055 9.84888 6.49895 11.0103H16.5527C16.5011 9.84888 16.35 9.14141 15.9432 8.18163Z" fill="#024F3C"/>
<path id="Vector_3" d="M92.1636 15.2711C92.1636 17.2822 93.4292 18.754 95.6803 18.754C97.4375 18.754 98.3013 18.2741 99.3199 17.2822L101.757 19.5951C100.122 21.1869 98.5495 22.0576 95.6496 22.0576C91.8552 22.0576 88.2168 20.3755 88.2168 14.0405C88.2168 8.93606 91.054 6.05301 95.2183 6.05301C99.6898 6.05301 102.22 9.23537 102.22 13.5296V15.2711H92.1648H92.1636ZM97.9007 10.9175C97.4694 9.98613 96.5749 9.29598 95.2171 9.29598C93.8593 9.29598 92.966 9.98613 92.5335 10.9175C92.2865 11.4876 92.1943 11.9082 92.1636 12.5983H98.2706C98.2398 11.9082 98.1477 11.4876 97.9007 10.9175Z" fill="#024F3C"/>
<path id="Vector_4" d="M75.9854 21.9327H72.0779V12.4747C72.0779 11.4938 71.8002 10.753 71.2473 10.2533C70.7926 9.83278 70.2188 9.62252 69.5282 9.62252C68.8377 9.62252 68.2331 9.83278 67.7785 10.2533C67.2255 10.7542 66.9478 11.4951 66.9478 12.4747V21.9327H63.0698V6.28927H66.8581V7.73017C67.8731 6.64918 69.1645 6.10869 70.7361 6.10869C72.3077 6.10869 73.4898 6.57003 74.4052 7.49023C75.4595 8.55143 75.9866 10.0331 75.9866 11.9342V21.9327H75.9854Z" fill="#024F3C"/>
<path id="Vector_5" d="M79.458 2.99684H83.9147V6.40555H86.0995V9.59409H83.5461V17.7374C83.5461 18.3657 83.9541 18.7429 84.5525 18.7429H86.0983V21.8783H83.9958C80.763 21.8783 79.458 19.3354 79.458 17.1202" fill="#024F3C"/>
<path id="Vector_6" d="M60.0152 15.2711H49.9602C49.9602 16.3125 50.2736 17.1536 50.9015 17.793C51.5281 18.4337 52.387 18.754 53.477 18.754C54.8962 18.754 56.109 18.263 57.1166 17.2822L59.5532 19.5951C58.6685 20.4559 57.8047 21.0669 56.9617 21.4268C55.9947 21.8473 54.8237 22.0576 53.445 22.0576C48.4894 22.0576 46.0122 19.3848 46.0122 14.0405C46.0122 11.5384 46.6598 9.56684 47.9549 8.1247C49.2082 6.74316 50.8953 6.05301 53.0125 6.05301C55.1297 6.05301 56.9187 6.76419 58.1942 8.1853C59.407 9.54705 60.014 11.3281 60.014 13.5296V15.2711H60.0152ZM56.0672 12.5983C56.0463 11.9576 55.9234 11.3974 55.6973 10.9175C55.2034 9.83647 54.3101 9.29598 53.0137 9.29598C51.7174 9.29598 50.8241 9.83647 50.3301 10.9175C50.104 11.3986 49.9799 11.9589 49.9602 12.5983H56.0672Z" fill="#024F3C"/>
</g>
<path id="Vector_7" d="M29.3847 1.74025L25.6714 5.47795C28.3231 7.52861 30.0397 10.7431 30.0397 14.3695C30.0397 17.9959 28.3231 21.2117 25.6714 23.2611L29.3847 26.9988C32.969 23.9785 35.2509 19.443 35.2509 14.3683C35.2509 9.29357 32.969 4.75935 29.3835 1.73901L29.3847 1.74025Z" fill="#024F3C"/>
</g>
<defs>
<clipPath id="clip0_167_539">
<rect width="110.842" height="27" fill="white"/>
</clipPath>
</defs>
</svg>
