<svg width="176" height="139" viewBox="0 0 176 139" fill="none" xmlns="http://www.w3.org/2000/svg">
<g id="Group 33">
<g id="Group">
<path id="Vector" d="M110.06 103.055V102.408C110.327 101.642 110.387 100.892 111.011 100.163C112.446 98.4905 114.372 97.8586 116.26 97.0706C117.003 96.7584 117.865 96.9442 118.564 96.5279C119.731 95.8366 121.032 95.4649 122.296 95.0337C124.34 94.3349 126.444 93.7997 128.555 93.3388C129.053 93.2273 129.447 92.8035 129.856 92.8704C130.466 92.9745 130.927 92.6995 131.425 92.5434C133.439 91.9189 135.387 91.1086 137.439 90.5659C139.32 90.0753 141.26 89.7854 143.066 89.0717C143.683 88.8338 144.36 88.9379 144.917 88.5365C145.876 87.8526 147.081 87.7708 148.136 87.2876C149.683 86.5814 151.519 86.7449 153.013 85.8082C153.095 85.7562 153.236 85.8157 153.325 85.7785C153.912 85.5109 154.544 85.667 155.146 85.5629C156.492 85.3399 157.771 84.7824 159.168 84.827C159.54 84.8418 159.904 84.827 160.276 84.7229C161.049 84.4924 161.889 84.4924 162.647 84.5445C164.112 84.6337 165.487 85.2656 166.862 85.7859C167.085 85.8677 167.308 85.9867 167.479 86.1502C168.736 87.295 169.538 88.7223 170.207 90.276C170.951 91.9932 171.159 93.8591 171.813 95.5987C172.118 96.409 172.289 97.3456 172.341 98.2005C172.46 100.066 173.01 101.821 173.33 103.635C173.657 105.456 174.14 107.24 174.304 109.106C174.445 110.689 174.69 112.265 174.846 113.849C174.854 113.953 174.854 114.102 174.921 114.154C175.508 114.629 175.329 115.313 175.404 115.923C175.434 116.183 175.471 116.443 175.53 116.696C175.894 118.287 176.363 119.9 175.56 121.483C174.869 122.844 173.947 124.063 172.527 124.725C170.557 125.646 168.438 126.204 166.401 126.955C164.788 127.55 163.086 127.787 161.51 128.456C160.551 128.865 159.503 128.724 158.551 129.036C157.295 129.445 155.994 129.653 154.715 129.973C152.753 130.464 150.76 130.88 148.798 131.371C147.802 131.623 146.768 131.928 145.757 132.218C143.252 132.932 140.866 134.017 138.346 134.664C136.517 135.132 134.711 135.638 133.008 136.448C132.079 136.887 131.038 136.805 130.131 137.258C129.827 137.414 129.566 137.667 129.195 137.682C127.738 137.741 126.429 138.381 125.039 138.715C123.196 139.154 121.352 139.08 119.605 138.537C118.148 138.091 117.07 136.872 116.133 135.705C115.383 134.775 115.107 133.519 114.922 132.352C114.713 131.058 114.327 129.787 114.342 128.456C114.342 127.988 114.223 127.49 114.037 127.051C113.502 125.78 113.398 124.398 113.004 123.089C112.639 121.863 112.416 120.562 112.32 119.253C112.231 118.042 111.866 116.845 111.837 115.64C111.792 114.079 111.539 112.555 111.346 111.017C111.286 110.511 110.959 110.08 111.041 109.552C111.405 107.285 110.707 105.181 110.023 103.07L110.06 103.055Z" fill="#FFB9BA"/>
<path id="Vector_2" d="M125.864 127.527C125.106 126.918 125.009 126.643 125.753 125.676C126.318 124.94 126.86 124.19 127.44 123.468C128.035 122.732 128.763 122.086 129.306 121.305C130.265 119.915 131.529 118.77 132.317 117.217C132.644 116.577 133.149 115.901 133.7 115.343C134.242 114.793 134.153 114.481 133.491 114.146C130.644 112.697 127.856 111.158 125.128 109.485C124.169 108.898 123.203 108.311 122.244 107.731C120.705 106.802 119.3 105.657 117.865 104.571C117.538 104.326 117.174 104.192 116.839 103.984V103.337C117.642 102.817 118.304 103.337 118.973 103.65C120.148 104.207 121.181 105.018 122.296 105.687C124.184 106.817 126.169 107.798 127.998 109.017C129.403 109.954 130.979 110.504 132.406 111.396C133.402 112.02 134.532 112.548 135.67 113.009C137.171 113.611 138.621 114.302 140.204 114.696C142.286 115.217 144.858 114.31 146.025 112.533C146.144 112.355 146.248 112.206 146.434 112.072C147.712 111.15 148.731 110.006 149.712 108.757C150.344 107.946 151.117 107.151 151.749 106.318C152.686 105.084 153.838 103.992 154.596 102.676C155.332 101.39 156.358 100.327 157.057 99.0332C157.733 97.7769 158.9 96.922 159.688 95.7698C160.818 94.1269 162.253 92.7665 163.628 91.3466C164.037 90.9229 164.402 90.9452 164.743 91.4135V91.7331C164.335 91.919 164.216 92.2981 164.082 92.6773C163.554 94.1715 162.55 95.3906 161.658 96.6618C161.064 97.5167 160.707 98.5575 160.001 99.2711C159.034 100.252 158.603 101.561 157.644 102.549C157.139 103.07 156.559 103.783 156.358 104.497C156.053 105.582 155.154 106.244 154.715 107.233C154.514 107.679 154.031 108.207 153.585 108.578C153.087 108.987 152.864 109.515 152.604 110.035C154.217 110.504 155.719 111.232 157.243 111.909C158.915 112.645 160.566 113.418 162.35 113.871C162.952 114.027 163.502 114.399 164.052 114.711C164.26 114.83 164.372 115.083 164.253 115.336C164.141 115.566 164.089 115.871 163.747 115.901C163.353 115.938 162.93 116.079 162.565 115.99C160.811 115.603 159.101 115.232 157.414 114.444C155.399 113.507 153.399 112.332 151.073 112.132C150.627 112.095 150.277 112.109 150.032 112.496C149.036 114.057 147.556 115.098 146.129 116.198C145.601 116.607 145.133 117.016 144.419 117.038C142.271 117.105 140.085 117.551 138.093 116.339C137.714 116.109 137.29 116.064 136.904 115.908C136.651 115.812 136.517 115.908 136.331 116.139C135.826 116.756 135.573 117.581 135.06 118.101C134.146 119.03 133.655 120.279 132.599 121.082C131.841 121.662 131.388 122.547 130.756 123.26C129.945 124.182 129.209 125.178 128.228 125.922C127.626 126.383 127.299 127.081 126.697 127.52H125.894L125.864 127.527Z" fill="#024F3C"/>
</g>
<path id="Vector_3" d="M0.0159036 96.3792C0.454503 96.2528 0.37273 95.8886 0.342995 95.5838C0.305825 95.1972 0.305825 94.8032 0.499106 94.4836C1.12355 93.4726 1.53242 92.3426 2.15686 91.3242C2.81105 90.2685 4.06737 89.7259 4.41677 88.4472C4.55058 87.9715 4.81076 87.5254 5.01148 87.0645C5.92585 85.0202 7.4721 83.3996 8.69126 81.556C9.30083 80.6417 9.97732 79.757 10.8173 79.1326C11.6945 78.4784 12.2818 77.4748 13.3672 77.0808C13.5828 77.0065 13.7983 76.8206 13.9173 76.6274C14.1403 76.2482 14.3931 76.0401 14.8614 76.0029C15.4561 75.9509 15.746 75.4379 16.0657 75.0142C16.2664 74.754 16.4671 74.5087 16.8016 74.4418C17.6194 74.2782 18.3404 73.9065 18.8906 73.3118C19.7826 72.338 21.0166 71.9663 22.1466 71.5574C23.507 71.0594 24.9566 70.762 26.4954 70.8215C27.551 70.8661 28.733 71.0594 29.7589 70.4498C30.2124 70.1822 30.6287 70.5316 31.0375 70.6282C31.9742 70.8587 32.9926 70.5613 33.6097 69.803C34.5389 68.6731 35.4607 67.5357 36.4197 66.4355C36.7914 66.0043 37.3117 65.6772 37.7801 65.417C39.029 64.7183 39.817 63.618 40.7313 62.5922C41.1922 62.0792 41.9728 62.0198 42.6344 61.8562C42.9838 61.7744 43.2886 61.6927 43.5488 61.4399C44.3739 60.6445 45.3552 60.1241 46.4406 59.7599C46.7899 59.6409 47.1319 59.4476 47.4144 59.2097C48.0165 58.6894 48.5369 58.0872 49.4736 58.2656C49.6892 58.3102 49.9642 58.1393 50.1501 57.8939C50.4697 57.4628 50.8563 57.1506 51.4361 57.5C51.6145 57.604 51.8376 57.5669 51.9788 57.4702C52.5884 57.0168 53.3243 56.8681 53.9934 56.5633C54.5361 56.318 55.0193 56.1842 55.5917 56.2436C55.9411 56.2808 56.2607 56.199 56.5506 55.9388C56.9149 55.6117 57.3981 55.5448 57.8739 55.4259C59.6952 54.9501 61.5239 55.1657 63.3601 55.2549C63.9325 55.2847 64.5049 55.0839 65.0922 55.0765C65.3672 55.0765 65.62 55.0691 65.8653 55.2029C67.813 56.2734 69.9762 56.816 71.9834 57.7601C74.2061 58.8009 76.1612 60.2282 78.2725 61.4325C79.4247 62.0867 79.8262 62.0792 80.7405 61.098C80.9041 60.927 81.0974 60.7634 81.3055 60.6594C82.4429 60.0869 83.5431 59.4402 84.7325 58.9644C85.4536 58.6819 85.8848 57.9014 86.6282 57.5817C86.7694 57.5223 86.8958 57.2918 87.0073 57.3067C88.0257 57.4553 88.8732 56.9127 89.8024 56.7045C90.6573 56.5112 91.5197 56.2362 92.3746 56.1619C93.6458 56.0578 94.7832 55.2549 96.1064 55.5374C96.4409 55.6043 96.7234 55.4408 96.9613 55.1806C97.1174 55.0022 97.3255 54.7122 97.4965 54.7197C98.5744 54.7643 99.6003 54.3629 100.678 54.4521C101.674 54.5264 102.7 54.571 103.689 54.4298C104.678 54.2885 105.704 54.3182 106.663 53.8276C107.19 53.5526 107.77 54.0878 108.343 54.2067C108.64 54.2736 108.9 54.3554 109.197 54.2513C110.067 53.954 110.878 54.1547 111.688 54.5115C112.491 54.8684 113.279 55.2698 114.208 55.2401C114.825 55.2252 115.308 55.6415 115.799 55.9611C116.17 56.199 116.527 56.37 116.996 56.2957C117.642 56.199 118.163 56.6079 118.586 56.9573C120.021 58.1467 121.761 58.8455 123.255 59.916C125.218 61.3061 126.964 62.949 128.526 64.8C129.893 66.4281 131.001 68.2196 131.99 70.0781C132.525 71.0891 133.261 71.9812 133.685 73.0665C133.9 73.6166 134.302 74.1593 134.763 74.5384C135.395 75.0662 135.573 75.8096 135.818 76.4861C136.041 77.1031 135.774 77.8539 135.387 78.3595C134.599 79.4002 132.897 79.6529 131.73 79.0508C130.109 78.2108 128.934 76.9098 127.931 75.4231C126.957 73.9809 126.377 72.3083 125.225 70.9776C125.188 70.9404 125.158 70.8884 125.151 70.8364C124.682 68.1527 122.549 66.7031 120.757 65.023C119.984 64.2945 118.988 63.8411 118.029 63.3653C116.572 62.6368 115.078 62.0049 113.569 61.3953C112.914 61.1277 112.26 61.2243 111.613 61.098C110.959 60.9641 110.275 61.0385 109.651 60.7114C109.45 60.6073 109.145 60.5478 108.945 60.6296C108.045 60.9864 107.131 60.7932 106.283 60.5924C105.481 60.4066 104.804 60.7634 104.135 60.9121C102.908 61.1797 101.526 60.7783 100.425 61.7967C100.091 62.1015 99.3401 61.9603 98.8272 61.9454C96.991 61.8934 95.3704 62.6814 93.6383 63.0233C92.5827 63.2315 91.6981 64.012 90.5533 63.8262C90.4418 63.8113 90.3005 63.9005 90.1816 63.96C88.7245 64.7926 87.26 65.6178 85.8179 66.4727C84.8812 67.0228 84.8515 67.4168 85.6841 68.004C86.1673 68.346 86.4646 68.8366 86.7174 69.3124C86.9255 69.699 87.1634 70.0038 87.4385 70.3308C88.4123 71.4757 89.3638 72.6354 90.0478 73.9958C90.412 74.7243 90.1518 75.5717 90.6202 76.2854C91.1108 77.0214 90.9621 77.9878 91.4305 78.7534C91.7278 79.2441 91.2967 79.7347 91.2372 80.2254C91.1034 81.2364 91.6758 82.1284 91.6163 83.1171C91.594 83.4442 91.646 83.7193 91.319 83.9572C91.029 84.1653 91.029 84.5668 90.9324 84.9013C90.6945 85.7116 90.5756 86.6185 89.6092 86.9753C89.5646 86.9902 89.4977 87.0348 89.4902 87.0794C89.2152 88.5439 87.9663 87.964 87.1337 88.1053C86.7174 88.1722 86.3605 88.254 85.9666 88.4101C84.7623 88.8858 83.4613 88.8189 82.2645 88.5588C80.3168 88.135 78.3914 87.5775 76.8749 86.0833C76.2059 85.4216 75.1725 85.1763 74.5184 84.4329C73.5594 83.3402 72.6227 82.2251 71.686 81.1174C71.5151 80.9167 71.5299 80.664 71.5968 80.4261C71.6786 80.1362 71.5225 79.8388 71.5299 79.6083C71.5671 78.352 70.5487 77.2741 70.8981 76.0103C71.0988 75.2893 71.069 74.583 70.965 73.8768C70.9055 73.4828 71.1211 73.2152 71.2177 72.8955C71.582 71.7061 72.08 70.5687 72.5781 69.4313C72.6525 69.2529 72.7565 69.1191 72.9275 69.0076C74.0054 68.3014 74.8603 67.4391 75.009 66.0787C75.009 66.0266 75.0387 65.9597 75.0759 65.9374C76.0795 65.2089 75.18 64.8372 74.7339 64.577C72.9944 63.5734 71.188 62.7037 69.3369 61.9231C69.0173 61.7893 68.6976 61.715 68.4226 61.4622C67.1737 60.31 65.5382 60.1092 64.0663 60.4066C62.9215 60.6371 61.8733 60.5255 60.7805 60.4661C60.5501 60.4512 60.3196 60.4661 60.1858 60.6371C59.7026 61.2318 59.0261 61.2169 58.3571 61.2764C57.3832 61.3656 56.4837 61.8413 55.5545 61.9975C54.4692 62.1759 53.7183 62.9787 52.6627 63.1869C52.0011 63.3207 51.4733 63.9228 50.8042 64.2128C50.1426 64.4952 49.4513 64.7331 48.812 65.0305C48.1503 65.3427 47.065 65.2312 46.9832 66.376C46.9684 66.5321 46.7974 66.5321 46.671 66.5767C45.5857 66.9856 44.6267 67.5654 43.6528 68.2271C42.9541 68.7028 42.3668 69.1786 41.8241 69.8105C41.1402 70.6133 40.0846 71.0742 39.6162 72.1076C39.5791 72.1893 39.3858 72.2042 39.2222 72.2711C40.144 72.9104 41.0733 73.3787 42.114 73.7802C43.5488 74.3303 45.0355 74.9622 46.0689 76.2408C46.2621 76.4861 46.5446 76.6868 46.8271 76.8281C47.7638 77.2815 48.3362 78.077 48.8789 78.917C49.1242 79.2961 49.4067 79.6381 49.704 79.98C50.098 80.4335 50.5218 80.9613 50.3731 81.6973C50.217 82.4481 50.492 83.2287 50.7448 83.8605C51.4436 85.6075 50.6927 87.0199 49.9568 88.4324C49.7486 88.8338 49.7189 89.265 49.5405 89.659C49.2283 90.3652 48.6559 90.8484 48.2916 91.4877C48.0611 91.8891 47.3995 92.0155 47.0278 92.3649C45.489 93.8219 43.6974 94.2754 41.6531 93.8814C41.5044 93.8517 41.3409 93.9335 41.1848 93.9483C39.6757 94.0821 38.1443 94.2234 36.7022 93.6138C34.8437 92.8258 33.1934 91.6735 31.8553 90.1719C30.9037 89.1014 29.8927 88.0161 29.3649 86.6482C29.0899 85.9346 28.9486 85.1317 29.0527 84.3586C29.1419 83.6672 29.0378 83.0577 28.6959 82.4778C28.6438 82.3886 28.5397 82.2474 28.5695 82.1953C29.0229 81.3776 28.6215 80.493 28.7925 79.6306C29.0229 78.4264 29.6623 77.393 29.8778 76.2185C29.9447 75.8691 30.034 75.5346 30.2272 75.2446C30.361 75.0365 30.6064 74.8061 30.4428 74.6202C30.3016 74.4567 29.9671 74.3823 29.7143 74.3823C28.6884 74.3972 27.6625 74.479 26.6367 74.4715C26.1981 74.4715 26.0643 74.8878 25.6851 74.9993C24.9715 75.2149 24.243 75.3116 23.5293 75.5346C22.2209 75.9509 20.8754 76.4861 19.8049 77.17C18.7865 77.8168 17.4707 77.9209 16.6901 78.9021C16.0508 79.705 14.8911 79.8388 14.393 80.939C14.1775 81.4222 13.2705 81.6898 12.765 82.2251C11.4864 83.5557 10.1334 84.7972 9.07038 86.3434C8.14115 87.689 7.19704 89.0345 6.134 90.2834C5.07838 91.5249 4.25322 92.9076 3.39832 94.2605C2.5806 95.554 1.49525 96.6022 0.67752 97.866C0.127412 97.9849 -0.0733031 97.7768 0.0233375 97.2192C0.0679408 96.959 0.0307714 96.684 0.0307714 96.4164L0.0159036 96.3792ZM45.883 82.6711C45.8458 82.3366 45.9202 81.9426 45.7566 81.7196C44.9761 80.6714 44.5449 79.3482 43.2663 78.6642C42.7236 78.3743 42.2553 77.8539 41.7423 77.5194C40.8205 76.9247 39.8467 76.3003 38.7316 76.1144C38.2707 76.0401 37.8024 75.9657 37.4678 75.6833C36.9252 75.2224 36.6724 75.5866 36.3751 75.9286C35.8547 76.5158 35.877 77.4674 35.0667 77.8688C34.9998 77.8986 35.037 78.0918 34.9701 78.1587C34.3828 78.7163 34.8883 79.4745 34.6058 80.099C33.9516 81.5932 34.2192 83.1246 34.6281 84.6039C34.8957 85.5703 35.2079 86.507 35.7729 87.4139C36.3453 88.3283 37.059 88.7223 37.9362 89.1237C38.7242 89.4806 39.423 88.7743 40.1663 89.042C41.0584 89.3616 41.7349 88.9007 42.4857 88.5364C43.3406 88.1202 43.7495 87.2578 44.4929 86.7449C45.4072 86.1204 45.8756 85.1986 46.0317 84.0835C46.106 83.5632 45.5262 83.1692 45.8756 82.6637L45.883 82.6711ZM81.246 70.2937C81.1791 70.5613 81.1791 70.6356 81.1494 70.6654C80.629 71.156 80.7926 72.1968 79.8187 72.3306C79.6626 72.3529 79.6106 72.5015 79.618 72.6428C79.6403 72.9922 79.3876 73.126 79.1868 73.349C78.6665 73.9066 78.3691 74.6276 78.2427 75.3636C78.1089 76.107 78.0197 76.8801 77.99 77.6309C77.938 78.8427 78.0792 80.0767 79.001 80.9985C79.5288 81.5189 80.1756 81.898 80.8966 82.1656C81.4839 82.3812 81.9894 82.8644 82.6956 82.4927C83.2755 82.1879 83.8479 81.8236 84.5318 81.7567C84.569 81.7567 84.621 81.6824 84.6285 81.6378C84.74 80.6863 85.1265 79.6678 84.621 78.8129C84.2568 78.2033 84.3014 77.8019 84.5318 77.2221C84.7177 76.7612 84.7697 76.278 84.45 75.7204C84.0635 75.0365 83.5282 74.3675 83.3573 73.6092C83.0525 72.2711 82.1009 71.4534 81.2535 70.3011L81.246 70.2937Z" fill="#FF5053"/>
<g id="Group_2">
<path id="Vector_4" d="M48.7452 0.994848H51.7262C52.2986 1.47062 52.8934 1.6639 53.6813 1.53752C54.737 1.36654 55.8074 1.18813 56.9151 1.41115C58.9297 1.80514 60.9591 2.1694 63.0034 1.53009C63.1521 1.48549 63.3677 1.51522 63.5015 1.58956C64.1037 1.91665 64.743 1.79027 65.3749 1.77541C66.7947 1.7308 68.1923 1.26247 69.6419 1.7085C70.2663 1.89435 70.9874 1.94639 71.6342 1.83488C73.8123 1.46318 75.9756 1.86461 78.1388 1.90178C78.9343 1.91665 79.7 2.11737 80.4285 1.62673C80.5251 1.55982 80.7184 1.55239 80.8299 1.60443C82.5471 2.34782 84.3238 1.21043 86.0188 1.75311C86.8514 2.02073 87.3569 1.00972 88.0111 1.27734C89.0072 1.6862 90.0182 1.82001 91.0218 1.62673C92.1815 1.39628 93.1479 2.11737 94.2258 2.0802C95.1699 2.04303 96.0099 2.1248 96.8499 2.64517C97.5116 3.06147 98.3144 3.09121 99.1098 2.88306C99.4964 2.77898 99.9276 2.60057 100.329 2.90536C101.318 3.66361 102.292 4.45161 102.425 5.80458C102.626 7.81916 102.752 9.84118 102.968 11.8558C103.132 13.4094 102.648 14.9334 102.857 16.4796C103.02 17.7211 102.968 18.97 102.909 20.2115C102.834 21.7428 102.931 23.2742 102.909 24.8056C102.894 25.9653 102.329 27.2142 102.998 28.3739C103.02 28.4185 102.998 28.5225 102.961 28.5746C102.292 29.489 102.767 30.5743 102.529 31.5556C102.284 32.5666 102.656 33.7634 101.511 34.4622C100.619 35.0049 99.6153 35.3617 98.8571 36.1348C98.701 36.2984 98.478 36.5214 98.2104 36.4173C97.4224 36.1125 96.6492 36.3058 95.9504 36.5883C95.0063 36.96 94.1812 36.1869 93.2073 36.5214C92.1666 36.8782 90.992 36.8411 89.8844 37.0418C89.364 37.1384 88.6281 36.8336 88.3753 37.5845C87.684 39.6436 86.2567 41.2196 84.926 42.8551C84.5469 43.316 83.915 43.4944 83.5953 44.0445C83.0155 45.0481 81.8409 45.3752 81.0455 46.1483C80.7556 46.4308 80.2055 46.52 79.7594 46.5572C79.2242 46.6092 78.5105 46.4754 78.622 45.8063C78.7484 45.0927 78.7856 44.3493 79.0904 43.6505C79.8486 41.8887 80.5697 40.1045 80.4656 38.1123C80.4508 37.7852 80.4285 37.696 80.0122 37.6439C78.1611 37.4135 76.3398 37.8223 74.4888 37.8C72.2289 37.7629 69.9987 37.2499 67.7017 37.6142C65.8729 37.9041 63.9921 37.7257 62.1262 37.5622C60.015 37.3763 57.8889 37.2574 55.7777 37.5993C55.064 37.7108 54.4842 37.1087 53.8226 37.3168C52.1054 37.8595 50.3956 37.525 48.6858 37.3763C47.2287 37.2425 45.7345 37.2128 44.3369 36.8411C43.3408 36.5735 42.2926 36.96 41.4006 36.4917C40.6497 36.0977 39.8989 36.0754 39.1704 36.2761C38.2188 36.5437 37.3788 36.343 36.5239 35.9787C36.3678 35.9118 36.1894 35.8672 36.0184 35.8672C32.8664 35.8375 30.443 34.7298 28.867 31.7563C28.25 30.5892 28.5102 29.5261 28.3764 28.4408C27.9749 25.1847 28.5994 21.8766 28.0121 18.6132C27.6776 16.7398 27.7742 14.8442 27.6925 12.956C27.5586 9.7148 27.9972 6.60744 29.0529 3.55954C29.1718 3.21758 29.3056 2.9574 29.7442 2.88306C30.4579 2.76411 31.2459 2.68234 31.8406 2.31808C33.4314 1.36654 35.2007 1.60443 36.8882 1.30707C37.4309 1.21043 38.085 1.58213 38.5311 0.987414H39.1704C39.6536 1.42601 40.2557 1.40371 40.8356 1.39628C42.2406 1.38141 43.6605 0.898208 45.0283 1.60443C45.1844 1.6862 45.4446 1.62673 45.6453 1.56726C46.3813 1.36654 47.0726 1.09892 47.8532 1.51522C48.2546 1.7308 48.5445 1.32937 48.7378 0.97998L48.7452 0.994848Z" fill="#55E8C3"/>
<g id="Group_3">
<path id="Vector_5" d="M65.1145 16.5391C65.8356 16.8439 66.6533 16.7546 67.3446 17.2601C68.4895 18.1002 69.099 19.9512 68.3334 20.821C67.4487 21.832 66.1924 22.0922 64.9732 21.7948C63.8358 21.5198 62.8471 20.8061 62.4903 19.5721C62.245 18.7321 63.3749 17.0594 64.3265 16.7398C64.5198 16.6729 64.713 16.606 64.9138 16.5391H65.1293H65.1145Z" fill="#1D1D1D"/>
<path id="Vector_6" d="M40.4264 19.089C40.6717 18.9998 40.6568 18.7619 40.7237 18.576C41.5192 16.4797 43.9352 16.0857 45.4443 17.8029C46.3884 18.8808 46.4553 19.535 45.8383 20.8434C45.2956 21.9956 44.3217 22.1815 43.2067 22.1146C41.9578 22.0402 41.4002 21.1259 40.9319 20.1818C40.7758 19.877 40.7237 19.5276 40.4264 19.3046V19.089Z" fill="#1D1D1D"/>
<path id="Vector_7" d="M84.948 19.8992C85.0075 19.4086 84.9778 18.8659 85.2231 18.3753C86.026 16.7844 86.7693 16.6135 88.7988 17.5799C90.2558 18.2712 90.7242 19.4606 90.0923 20.8656C89.5199 22.122 88.6799 22.4193 87.3269 21.9361C86.5909 21.6685 85.8401 21.4752 85.3049 20.8582C85.0744 20.598 84.7696 20.3601 84.948 19.9067V19.8992Z" fill="#1D1D1D"/>
</g>
<path id="Vector_8" d="M78.1165 46.5646C77.0906 45.2859 78.005 43.9255 78.005 42.6172C78.005 41.4575 78.2131 40.2755 78.8822 39.2124C79.2465 38.6326 78.7112 38.1048 77.8935 38.2906C76.035 38.7218 74.0873 38.6846 72.2809 39.3909C72.0579 39.4801 71.7605 39.5767 71.5598 39.5024C69.3891 38.7069 67.1961 39.651 65.0106 39.3463C62.8399 39.0489 60.6097 39.4132 58.4687 39.1604C55.1606 38.7738 51.8526 39.0489 48.5445 38.8631C46.4853 38.7515 44.4335 38.2609 42.4338 38.365C39.9137 38.4988 37.4159 37.9115 34.8959 38.3427C33.3645 38.6029 32.1528 37.7926 31.0823 36.7741C31.0823 35.7829 31.5878 35.2874 32.5988 35.2874H33.6321C34.9107 35.8523 36.1894 35.4806 37.4606 35.2874H41.289C41.3559 35.3543 41.4303 35.4732 41.4972 35.4806C43.4448 35.5327 45.3851 35.6219 47.303 35.949C48.1282 36.0902 48.9236 35.6516 49.667 35.8077C51.7188 36.2389 53.7556 35.7854 55.7925 35.8746C56.4987 35.9044 57.2496 35.726 57.9112 35.9118C60.0521 36.5139 62.208 35.9267 64.3489 36.1051C65.5978 36.2092 66.8616 36.1646 68.1179 36.1274C68.9654 36.1051 69.798 36.395 70.6157 36.3281C72.5039 36.1646 74.3847 35.9267 76.2878 35.9564C76.8007 35.9564 77.2616 36.2166 77.834 36.0679C79.5587 35.6219 80.6589 36.2315 81.2982 37.8446V38.0602C80.7258 39.1678 80.6217 40.4465 80.3467 41.6062C79.9898 43.1152 79.5958 44.4979 78.6963 45.7468C78.5254 45.9847 78.1983 46.1854 78.3172 46.572H78.1016L78.1165 46.5646Z" fill="#128266"/>
</g>
</g>
</svg>
