<svg width="32" height="32" viewBox="0 0 32 32" fill="none" xmlns="http://www.w3.org/2000/svg">
<g id="Icons" clip-path="url(#clip0_11_1867)">
<path id="Vector" d="M16.0048 10C17.1093 10 18.0048 9.10457 18.0048 8C18.0048 6.89543 17.1093 6 16.0048 6C14.9002 6 14.0048 6.89543 14.0048 8C14.0048 9.10457 14.9002 10 16.0048 10Z" fill="#2EB593"/>
<path id="Vector_2" d="M16.0048 18C17.1093 18 18.0048 17.1046 18.0048 16C18.0048 14.8954 17.1093 14 16.0048 14C14.9002 14 14.0048 14.8954 14.0048 16C14.0048 17.1046 14.9002 18 16.0048 18Z" fill="#2EB593"/>
<path id="Vector_3" d="M16.0048 26C17.1093 26 18.0048 25.1046 18.0048 24C18.0048 22.8954 17.1093 22 16.0048 22C14.9002 22 14.0048 22.8954 14.0048 24C14.0048 25.1046 14.9002 26 16.0048 26Z" fill="#2EB593"/>
</g>
<defs>
<clipPath id="clip0_11_1867">
<rect width="32" height="32" fill="white" transform="translate(0.00476074)"/>
</clipPath>
</defs>
</svg>
