<svg width="160" height="160" viewBox="0 0 160 160" fill="none" xmlns="http://www.w3.org/2000/svg">
<g clip-path="url(#clip0_410_21364)">
<path d="M119.64 61.2459C118.681 59.2588 117.932 57.3139 117.414 55.5382C119.227 54.4742 125.344 51.1906 125.701 50.7114C126.583 49.5276 125.596 48.9639 126.415 46.6949C127.829 42.7771 129.796 41.3537 131.945 40.6702C132.771 40.4095 133.666 40.6843 134.184 40.9098C134.457 41.0225 134.765 40.9873 134.989 40.79C135.85 40.0219 142.562 32.3554 145.796 35.8857C146.867 37.0554 141.023 42.1288 141.667 42.8264C142.101 43.2985 142.437 42.8687 143.402 44.2428C144.998 46.5047 143.829 46.3144 144.494 47.8646C144.62 48.1676 145.908 48.4354 146.657 50.1125C147.406 51.7825 145.257 54.5588 139.595 58.6809C136.914 60.6328 127.108 67.2565 124.652 68.9124C122.979 67.1085 121.187 64.4238 119.647 61.2388L119.64 61.2459Z" fill="#FFB9BA"/>
<path d="M13.0699 134.078C12.279 138.496 18.4873 141.406 32.1217 143.309C53.4484 146.282 75.1529 142.336 75.7549 137.538C77.2317 125.742 78.4356 110.043 78.9815 106.576C79.6254 102.475 78.7855 96.1047 86.8066 93.73C107.937 87.4728 120.697 79.9119 126.828 71.9142C130.944 66.5448 115.916 46.8782 111.017 50.3168C105.012 54.5377 86.1277 75.2542 60.7136 65.96C41.7037 59.0051 36.6992 63.8954 30.9249 69.5114C23.9607 76.283 20.2721 83.3929 18.8022 92.6731C18.0533 97.3942 19.3832 100.868 19.7751 102.299C15.1347 123.255 13.6578 130.808 13.0699 134.078Z" fill="#2EB593"/>
<path d="M88.5233 79.7457C89.0577 78.4648 84.1082 75.1507 77.4684 72.3435C70.8286 69.5363 65.0128 68.299 64.4785 69.5799C63.9441 70.8609 68.8936 74.175 75.5334 76.9822C82.1732 79.7894 87.989 81.0267 88.5233 79.7457Z" fill="#024F3C"/>
<path d="M38.771 115.186C37.9521 115.186 37.1192 115.165 36.2723 115.13C29.833 114.848 24.5626 111.924 21.42 106.9C17.6824 100.917 17.4934 92.8985 20.902 84.8937C20.979 84.7175 21.182 84.633 21.364 84.7105C21.5389 84.788 21.6229 84.9923 21.5459 85.1756C18.2283 92.9619 18.3963 100.748 22.0149 106.533C25.0246 111.353 30.099 114.165 36.3003 114.432C60.0066 115.489 72.0103 102.108 85.9247 86.6412L86.5407 85.9577C86.6737 85.8168 86.8906 85.8027 87.0376 85.9366C87.1776 86.0634 87.1916 86.2889 87.0586 86.4369L86.4497 87.1133C73.4731 101.537 61.1895 115.186 38.771 115.186Z" fill="#024F3C"/>
<path d="M51.4817 85.6196C51.4117 85.6196 51.3487 85.5984 51.2857 85.5632C51.1247 85.4575 51.0827 85.239 51.1877 85.077C57.165 75.9941 62.2675 71.3928 62.3235 71.3505C62.4635 71.2237 62.6874 71.2307 62.8204 71.3787C62.9464 71.5267 62.9324 71.7451 62.7924 71.879C62.7434 71.9213 57.697 76.4662 51.7757 85.4716C51.7057 85.5702 51.6007 85.6266 51.4817 85.6266V85.6196Z" fill="#024F3C"/>
<path d="M86.7998 94.0823C86.6388 94.0823 86.4918 93.9696 86.4568 93.8005C86.4148 93.6102 86.5408 93.42 86.7298 93.3847C96.2487 91.3624 104.998 87.7264 114.272 81.9343C114.433 81.8356 114.65 81.8849 114.755 82.047C114.86 82.2091 114.804 82.4275 114.643 82.5332C105.299 88.3677 96.4797 92.0318 86.8768 94.0753C86.8488 94.0753 86.8278 94.0823 86.8068 94.0823H86.7998Z" fill="#024F3C"/>
<path d="M47.618 145C42.1866 145 36.7272 144.62 31.9818 143.858C31.7928 143.83 31.6598 143.647 31.6878 143.457C31.7158 143.267 31.8978 143.133 32.0868 143.161C49.5708 145.944 68.6717 143.464 74.0681 139.391C74.831 138.813 75.2509 138.242 75.3209 137.693C76.1398 131.133 76.9027 123.318 77.5117 117.04C78.0016 112.03 78.3866 108.07 78.6246 106.526C78.6525 106.336 78.8415 106.202 79.0235 106.23C79.2125 106.259 79.3455 106.442 79.3175 106.632C79.0795 108.154 78.6945 112.107 78.2046 117.11C77.5957 123.396 76.8328 131.217 76.0068 137.784C75.9159 138.531 75.3979 139.257 74.481 139.955C69.9805 143.358 58.8518 145 47.611 145H47.618Z" fill="#024F3C"/>
<path d="M135.983 50.5C134.772 50.5 133.191 49.8517 131.203 47.8858L131.091 47.7801C130.951 47.6462 130.944 47.4207 131.077 47.2798C131.21 47.1388 131.434 47.1318 131.574 47.2657L131.693 47.3855C134.093 49.7672 136.067 50.3943 137.551 49.2528C138.419 48.5834 138.783 47.7801 138.664 46.7865C138.405 44.5598 135.745 42.0936 134.646 41.6003C133.044 40.8816 132.148 41.0084 131.476 41.2198C129.488 41.854 128.144 42.9321 126.744 46.8217C126.681 47.005 126.478 47.0966 126.296 47.0331C126.114 46.9697 126.023 46.7654 126.086 46.5822C127.584 42.4389 129.117 41.2269 131.266 40.5434C132.015 40.3038 133.114 40.1347 134.933 40.9521C136.116 41.4805 139.056 44.0807 139.364 46.6949C139.511 47.921 139.028 48.9991 137.978 49.8094C137.474 50.197 136.816 50.5 135.983 50.5Z" fill="#024F3C"/>
<path d="M143.857 45.3349C143.731 45.3349 143.612 45.2715 143.549 45.1517C143.542 45.1376 142.618 43.4606 141.45 43.1435C141.072 43.0378 140.708 43.1012 140.351 43.3197C139.077 44.1018 138.426 44.6092 138.426 44.6092C138.272 44.729 138.055 44.7008 137.936 44.5457C137.817 44.3907 137.845 44.1723 137.999 44.0525C138.027 44.0314 138.678 43.524 139.994 42.7137C140.519 42.3895 141.072 42.305 141.646 42.46C143.108 42.8546 144.13 44.729 144.172 44.8135C144.263 44.9826 144.2 45.194 144.032 45.2927C143.976 45.3209 143.92 45.3349 143.864 45.3349H143.857Z" fill="#024F3C"/>
<path d="M139.896 55.1225C139.42 55.1225 138.951 54.9323 138.587 54.58C138.062 54.0726 137.803 53.3187 137.901 52.5506C138.048 51.3597 138.888 49.584 142.045 47.8858C142.891 47.4278 143.724 47.3362 144.522 47.604C146.097 48.1325 146.937 49.887 146.972 49.9645C147.056 50.1407 146.979 50.3521 146.804 50.4367C146.629 50.5142 146.419 50.4437 146.335 50.2675C146.328 50.2534 145.586 48.7032 144.298 48.2734C143.689 48.0691 143.045 48.1536 142.374 48.513C139.483 50.0702 138.72 51.6134 138.594 52.6422C138.524 53.1848 138.706 53.7274 139.07 54.0797C139.357 54.3545 139.714 54.4743 140.085 54.4109C140.274 54.3756 140.456 54.5095 140.491 54.6998C140.526 54.89 140.393 55.0732 140.204 55.1085C140.099 55.1225 140.001 55.1366 139.896 55.1366V55.1225Z" fill="#024F3C"/>
<path d="M111.36 29.7975L113.229 32.4541C113.824 33.3067 115.084 33.3067 115.679 32.4541L117.547 29.7975C117.89 29.3043 118.317 28.8815 118.8 28.5362L121.439 26.6548C122.286 26.0559 122.286 24.7875 121.439 24.1886L118.8 22.3072C118.31 21.9619 117.89 21.5321 117.547 21.0459L115.679 18.3893C115.084 17.5367 113.824 17.5367 113.229 18.3893L111.36 21.0459C111.017 21.5391 110.59 21.9619 110.107 22.3072L107.468 24.1886C106.622 24.7875 106.622 26.0559 107.468 26.6548L110.107 28.5362C110.597 28.8815 111.017 29.3113 111.36 29.7975Z" fill="#55E8C3"/>
<path d="M23.3729 75.987L25.2417 78.6435C25.8367 79.4961 27.0965 79.4961 27.6915 78.6435L29.5602 75.987C29.9032 75.4938 30.3302 75.071 30.8131 74.7257L33.4518 72.8443C34.2987 72.2453 34.2987 70.977 33.4518 70.378L30.8131 68.4966C30.3232 68.1513 29.9032 67.7215 29.5602 67.2353L27.6915 64.5788C27.0965 63.7262 25.8367 63.7262 25.2417 64.5788L23.3729 67.2353C23.03 67.7286 22.603 68.1513 22.1201 68.4966L19.4814 70.378C18.6345 70.977 18.6345 72.2453 19.4814 72.8443L22.1201 74.7257C22.61 75.071 23.03 75.5008 23.3729 75.987Z" fill="#55E8C3"/>
<path d="M82.1103 23.3289L83.3981 25.168C83.8111 25.7599 84.679 25.7599 85.0919 25.168L86.3798 23.3289C86.6178 22.9907 86.9117 22.6947 87.2477 22.4551L89.0745 21.1586C89.6624 20.7429 89.6624 19.8691 89.0745 19.4534L87.2477 18.1568C86.9117 17.9172 86.6178 17.6213 86.3798 17.2831L85.0919 15.4439C84.679 14.852 83.8111 14.852 83.3981 15.4439L82.1103 17.2831C81.8723 17.6213 81.5783 17.9172 81.2424 18.1568L79.4156 19.4534C78.8276 19.8691 78.8276 20.7429 79.4156 21.1586L81.2424 22.4551C81.5783 22.6947 81.8723 22.9907 82.1103 23.3289Z" fill="#55E8C3"/>
<path d="M137.719 38.514C137.628 38.514 137.544 38.4788 137.474 38.4154C137.334 38.2815 137.334 38.056 137.474 37.9151C137.558 37.8305 139.518 35.8293 142.122 34.9062C144.9 33.9197 146.041 35.625 146.09 35.6954C146.195 35.8575 146.146 36.0759 145.985 36.1816C145.824 36.2873 145.607 36.2451 145.502 36.083C145.46 36.0196 144.585 34.7723 142.353 35.5686C139.91 36.4353 137.992 38.3872 137.978 38.4013C137.908 38.4717 137.817 38.507 137.726 38.507L137.719 38.514Z" fill="#024F3C"/>
<path d="M44.7486 56.264L43.4047 62.8102C43.4047 62.8102 40.2621 63.0286 41.081 63.8178C43.4397 66.0868 49.2981 68.7715 55.2614 69.7087C61.2247 70.6458 58.593 66.0868 55.7583 65.213L56.2133 62.9793" fill="#FFB9BA"/>
<path d="M40.6538 51.9375C40.6538 51.9375 36.4333 54.3755 36.7133 59.8436C36.9933 65.375 44.8884 66.0938 46.0922 65.2412C48.6679 63.4161 46.9251 57.1518 45.4903 54.6504C44.0625 52.1489 40.6538 51.9304 40.6538 51.9304V51.9375Z" fill="#1B1634"/>
<path d="M65.76 53.7695C65.76 53.7695 69.0426 60.6469 67.3208 63.8741C66.2849 65.8119 63.1073 66.2488 61.3085 64.5929C59.5097 62.937 62.3793 56.729 62.3793 56.729L65.76 53.7695Z" fill="#1B1634"/>
<path d="M43.5165 45.6662C43.8945 45.7578 44.2375 45.9057 44.5524 46.103C46.9532 40.6068 52.6435 37.3936 58.2359 38.7606C64.5632 40.3038 68.3568 47.1318 66.698 54.0021C65.0391 60.8724 58.5719 65.1848 52.2376 63.6417C47.5691 62.5001 44.2865 58.4836 43.5515 53.6991C42.9216 53.9105 42.2357 53.9528 41.5568 53.7837C39.492 53.2763 38.2531 51.0567 38.7991 48.8159C39.345 46.5751 41.4518 45.1659 43.5165 45.6732V45.6662Z" fill="#FFB9BA"/>
<path d="M55.5903 60.2453C54.0785 60.2453 52.3216 59.6393 50.7048 57.5747C50.5858 57.4197 50.6138 57.2012 50.7608 57.0814C50.9148 56.9616 51.1318 56.9898 51.2508 57.1378C54.7154 61.563 58.7889 58.5823 58.9569 58.4555C59.1109 58.3427 59.3349 58.3709 59.4469 58.526C59.5658 58.681 59.5308 58.8994 59.3769 59.0192C59.3489 59.0403 57.718 60.2453 55.5833 60.2453H55.5903Z" fill="#DC373A"/>
<path d="M64.4442 51.9516C64.3253 51.9516 64.2133 51.8952 64.1503 51.7895C64.1503 51.7824 63.5763 50.9087 62.5965 50.7396C61.9035 50.6127 61.1476 50.8594 60.3567 51.4724C60.2027 51.5922 59.9857 51.564 59.8668 51.409C59.7478 51.254 59.7828 51.0355 59.9298 50.9157C60.8886 50.1829 61.8265 49.8869 62.7224 50.0561C64.0103 50.2886 64.7102 51.3737 64.7382 51.4231C64.8432 51.5851 64.7942 51.8036 64.6332 51.9093C64.5772 51.9445 64.5072 51.9656 64.4442 51.9656V51.9516Z" fill="#024F3C"/>
<path d="M54.9533 50.345C54.8343 50.345 54.7223 50.2886 54.6593 50.1829C54.6593 50.1758 54.0854 49.3021 53.1055 49.133C52.4126 49.0132 51.6566 49.2598 50.8657 49.8658C50.7118 49.9856 50.4948 49.9574 50.3758 49.8024C50.2568 49.6474 50.2918 49.4289 50.4388 49.3091C51.3977 48.5763 52.3286 48.2804 53.2315 48.4424C54.5193 48.675 55.2193 49.7672 55.2472 49.8094C55.3522 49.9715 55.3032 50.1899 55.1423 50.2956C55.0863 50.3309 55.0163 50.352 54.9533 50.352V50.345Z" fill="#024F3C"/>
<path d="M67.559 45.9128C66.5301 47.9069 53.6585 47.7378 49.8859 45.6873C46.1064 43.6368 46.5263 33.9056 56.2062 34.0959C69.3928 34.3496 68.5878 43.9186 67.566 45.9128H67.559Z" fill="#1B1634"/>
<path d="M50.5016 42.298C50.5016 42.298 46.8621 46.8571 45.1612 47.146C43.4604 47.4349 40.8427 45.6521 41.7246 42.8547C42.6065 40.0572 45.9662 34.5328 50.5366 37.0836L50.5016 42.298Z" fill="#1B1634"/>
<path d="M64.8573 55.4678L121.39 70.1596L123.672 46.9768L65.3753 50.2252C64.4094 50.2816 63.6324 51.0356 63.5345 52.0009L63.4015 53.3679C63.3035 54.3333 63.9264 55.2282 64.8643 55.4748L64.8573 55.4678Z" fill="#128266"/>
<path d="M126.604 58.991C125.8 65.4314 124.848 70.0891 122.314 70.1737C117.778 70.3217 116.68 64.4027 117.232 57.934C117.785 51.4654 119.073 46.9275 124.323 46.7513C126.863 46.6667 127.178 54.4037 126.604 58.9839V58.991Z" fill="#024F3C"/>
<path d="M127.894 58.8637C128.448 52.3964 126.846 46.9755 124.316 46.7558C121.785 46.5361 119.285 51.6007 118.731 58.0679C118.177 64.5352 119.779 69.9561 122.309 70.1758C124.839 70.3955 127.34 65.3309 127.894 58.8637Z" fill="#55E8C3"/>
<path d="M73.2423 75.9799C71.2335 75.0921 69.2458 73.9224 68.0769 73.2036C68.8468 71.2377 72.6404 62.796 72.6264 62.2041C72.5914 60.7244 71.6815 60.816 70.7156 58.6104C70.0157 57.0038 70.3236 56.7854 72.6614 57.4971C73.1443 56.7784 74.1102 55.0027 73.7673 49.8799C73.7463 49.5839 73.7673 48.9286 73.8163 48.6327C74.0192 47.4911 74.5302 44.7571 77.0359 44.9685C78.3518 45.0742 78.6457 46.0748 79.5486 46.3637C80.9905 46.8288 81.2564 46.1453 82.9292 46.2157C85.365 46.3144 85.078 47.3502 85.5679 47.618C86.8488 48.3085 86.0299 47.7941 88.3186 47.9421C90.1384 48.0549 90.3484 53.0578 88.4376 59.8154C87.5347 63.0145 81.9144 76.2054 81.0045 79.0452C77.6658 77.9459 76.7769 77.5513 73.2423 75.994V75.9799Z" fill="#FFB9BA"/>
</g>
<defs>
<clipPath id="clip0_410_21364">
<rect width="134" height="130" fill="white" transform="translate(13 15)"/>
</clipPath>
</defs>
</svg>
