<svg width="160" height="160" viewBox="0 0 160 160" fill="none" xmlns="http://www.w3.org/2000/svg">
<g clip-path="url(#clip0_521_6077)">
<path d="M87.7408 27.7493H24.9518C19.8691 27.7493 15.7488 31.8723 15.7488 36.9582V64.8698C15.7488 69.9558 19.8691 74.0787 24.9518 74.0787H87.7408C92.8235 74.0787 96.9438 69.9558 96.9438 64.8698V36.9582C96.9438 31.8723 92.8235 27.7493 87.7408 27.7493Z" fill="#55E8C3"/>
<path d="M64.7144 69.9277C64.7144 69.9277 66.272 74.3711 63.0745 78.7095C59.877 83.048 66.7063 82.6284 71.8657 79.294C79.5561 74.3261 78.8522 60.936 78.8522 60.936L64.7144 69.9202V69.9277Z" fill="#55E8C3"/>
<path d="M39.5465 60.2391C42.3132 60.2391 44.5561 57.9947 44.5561 55.2262C44.5561 52.4577 42.3132 50.2134 39.5465 50.2134C36.7798 50.2134 34.5369 52.4577 34.5369 55.2262C34.5369 57.9947 36.7798 60.2391 39.5465 60.2391Z" fill="#128266"/>
<path d="M56.35 55.2264C59.1167 55.2264 61.3596 52.982 61.3596 50.2135C61.3596 47.445 59.1167 45.2007 56.35 45.2007C53.5832 45.2007 51.3403 47.445 51.3403 50.2135C51.3403 52.982 53.5832 55.2264 56.35 55.2264Z" fill="#128266"/>
<path d="M73.1461 50.2134C75.9129 50.2134 78.1557 47.9691 78.1557 45.2006C78.1557 42.4321 75.9129 40.1877 73.1461 40.1877C70.3794 40.1877 68.1365 42.4321 68.1365 45.2006C68.1365 47.9691 70.3794 50.2134 73.1461 50.2134Z" fill="#128266"/>
<path d="M15.7488 60.9884C15.337 60.9884 15 60.6513 15 60.2391V36.9583C15 31.4659 19.463 27 24.9519 27H43.2307C43.6425 27 43.9795 27.3372 43.9795 27.7493C43.9795 28.1614 43.6425 28.4986 43.2307 28.4986H24.9519C20.2942 28.4986 16.4976 32.2976 16.4976 36.9583V60.2391C16.4976 60.6513 16.1607 60.9884 15.7488 60.9884Z" fill="#024F3C"/>
<path d="M81.0089 28.4986H62.2583C61.8465 28.4986 61.5095 28.1614 61.5095 27.7493C61.5095 27.3372 61.8465 27 62.2583 27H81.0089C81.4208 27 81.7577 27.3372 81.7577 27.7493C81.7577 28.1614 81.4208 28.4986 81.0089 28.4986Z" fill="#024F3C"/>
<path d="M124.424 71.8253L74.4242 91.4224C71.3012 92.6464 69.7612 96.172 70.9844 99.297L82.2719 128.133C83.4952 131.258 87.0185 132.799 90.1415 131.575L140.141 111.977C143.264 110.753 144.804 107.228 143.581 104.103L132.293 75.2673C131.07 72.1423 127.547 70.6013 124.424 71.8253Z" fill="#FFB9BA"/>
<path d="M103.571 105.662C102.5 105.662 101.414 105.534 100.343 105.265L77.3696 99.525C76.9203 99.4126 76.6507 98.9555 76.763 98.5059C76.8753 98.0564 77.3321 97.7866 77.7814 97.899L100.755 103.639C105.615 104.853 110.677 102.829 113.366 98.6033L125.781 79.099C126.028 78.7093 126.545 78.5969 126.934 78.8442C127.324 79.0915 127.436 79.6085 127.189 79.9981L114.773 99.5025C112.295 103.399 108.041 105.662 103.571 105.662Z" fill="#024F3C"/>
<path d="M135.883 104.425C135.793 104.425 135.695 104.41 135.598 104.373L118.143 98.1238C117.709 97.9664 117.484 97.4869 117.634 97.0523C117.784 96.6177 118.27 96.3854 118.705 96.5427L136.16 102.792C136.594 102.949 136.819 103.429 136.669 103.863C136.549 104.208 136.227 104.418 135.883 104.418V104.425Z" fill="#024F3C"/>
<path d="M87.3739 123.435C87.2466 123.435 87.1118 123.405 86.9845 123.338C86.5726 123.121 86.4154 122.619 86.6325 122.206L95.2066 105.759C95.4237 105.347 95.9254 105.19 96.3373 105.407C96.7491 105.624 96.9064 106.126 96.6892 106.538L88.1152 122.986C87.9654 123.27 87.6734 123.435 87.3739 123.435Z" fill="#024F3C"/>
</g>
<defs>
<clipPath id="clip0_521_6077">
<rect width="129" height="105" fill="white" transform="translate(15 27)"/>
</clipPath>
</defs>
</svg>
