<svg width="160" height="160" viewBox="0 0 160 160" fill="none" xmlns="http://www.w3.org/2000/svg">
<g clip-path="url(#clip0_410_21363)">
<path d="M26.5744 65.1212L24.9046 67.4965C24.373 68.2589 23.2474 68.2589 22.7158 67.4965L21.0461 65.1212C20.7396 64.6801 20.3582 64.3021 19.9266 63.9934L17.569 62.3111C16.8123 61.7756 16.8123 60.6415 17.569 60.1059L19.9266 58.4237C20.3644 58.1149 20.7396 57.7306 21.0461 57.2959L22.7158 54.9205C23.2474 54.1582 24.373 54.1582 24.9046 54.9205L26.5744 57.2959C26.8808 57.7369 27.2623 58.1149 27.6938 58.4237L30.0514 60.1059C30.8081 60.6415 30.8081 61.7756 30.0514 62.3111L27.6938 63.9934C27.256 64.3021 26.8808 64.6864 26.5744 65.1212Z" fill="#55E8C3"/>
<path d="M96.2472 33.0197L94.5775 35.3951C94.0459 36.1574 92.9202 36.1574 92.3887 35.3951L90.7189 33.0197C90.4125 32.5787 90.031 32.2007 89.5995 31.8919L87.2418 30.2097C86.4851 29.6741 86.4851 28.54 87.2418 28.0045L89.5995 26.3222C90.0373 26.0135 90.4125 25.6292 90.7189 25.1944L92.3887 22.8191C92.9202 22.0567 94.0459 22.0567 94.5775 22.8191L96.2472 25.1944C96.5536 25.6355 96.9351 26.0135 97.3666 26.3222L99.7243 28.0045C100.481 28.54 100.481 29.6741 99.7243 30.2097L97.3666 31.8919C96.9289 32.2007 96.5536 32.585 96.2472 33.0197Z" fill="#55E8C3"/>
<path d="M87.6858 40.0637L86.5351 41.7082C86.1661 42.2374 85.3907 42.2374 85.0217 41.7082L83.871 40.0637C83.6584 39.7613 83.3957 39.4967 83.0955 39.2825L81.4633 38.1232C80.938 37.7514 80.938 36.9702 81.4633 36.5984L83.0955 35.4391C83.3957 35.2249 83.6584 34.9603 83.871 34.6578L85.0217 33.0134C85.3907 32.4841 86.1661 32.4841 86.5351 33.0134L87.6858 34.6578C87.8984 34.9603 88.1611 35.2249 88.4612 35.4391L90.0935 36.5984C90.6188 36.9702 90.6188 37.7514 90.0935 38.1232L88.4612 39.2825C88.1611 39.4967 87.8984 39.7613 87.6858 40.0637Z" fill="#55E8C3"/>
<path d="M43.7973 62.078C43.7973 62.078 25.9242 67.4209 20.4897 86.2722C15.7681 102.66 17.4316 126.18 49.9197 131.164C53.1529 131.662 65.4102 132.077 67.8554 130.326C74.0653 125.878 78.2741 110.737 78.2741 110.737C78.2741 110.737 97.7857 112.464 105.79 104.26C113.114 96.7564 119.405 75.5298 119.223 64.6802L97.1603 57.1132L87.5921 86.455C87.5921 86.455 74.7032 58.5245 43.8036 62.0843L43.7973 62.078Z" fill="#2EB593"/>
<path d="M61.1764 43.7811C59.2752 36.6425 52.3211 32.6228 46.5051 34.5507C41.8023 36.107 39.0382 41.1411 39.3571 46.7298C39.1257 46.755 38.9006 46.8054 38.6755 46.881C36.8556 47.4858 35.8613 49.4579 36.4616 51.2977C37.062 53.1311 39.0194 54.1329 40.8455 53.5281C40.9831 53.484 41.1144 53.4273 41.2457 53.3643C41.8211 54.4354 42.509 55.4057 43.2782 56.2688V62.2481C43.2782 62.2481 40.5703 63.0105 41.4208 63.5523C43.8911 65.1086 49.5007 66.4002 54.8851 66.1292C60.2696 65.8583 57.1552 62.3489 54.5161 62.1032V60.0618C54.61 60.0366 65.11 58.556 61.1826 43.7874L61.1764 43.7811Z" fill="#FFB9BA"/>
<path d="M143 22H116.703V48.4939H143V22Z" fill="#CAFFF2"/>
<path d="M41.7398 43.4598C41.7398 43.4598 51.333 44.8837 52.69 42.8046C54.0471 40.7254 52.1585 38.5328 52.1585 38.5328C52.1585 38.5328 58.925 40.8451 62.3395 40.4292C65.7541 40.0134 57.4554 30.7641 49.8008 30.6444C42.1463 30.5247 36.9494 37.1088 36.2803 40.4859C35.6111 43.8631 36.0864 48.0781 40.7955 48.1348C45.5045 48.1916 41.7398 43.4472 41.7398 43.4472V43.4598Z" fill="#1B1634"/>
<path d="M49.9196 131.479C49.9196 131.479 49.8884 131.479 49.8696 131.479C36.9869 129.5 27.844 124.246 22.7034 115.853C15.3616 103.876 18.9262 90.1155 20.1957 86.184C23.6853 75.347 30.6019 69.2417 34.4104 66.5703C34.5542 66.4695 34.7481 66.5073 34.8482 66.6459C34.9482 66.7908 34.9107 66.9861 34.7731 67.0869C31.0271 69.7143 24.2293 75.7124 20.7961 86.3793C19.5516 90.2478 16.0432 103.775 23.2413 115.526C28.2818 123.754 37.2746 128.915 49.9697 130.861C50.1385 130.887 50.2573 131.05 50.2323 131.221C50.2073 131.378 50.076 131.485 49.9259 131.485L49.9196 131.479Z" fill="#024F3C"/>
<path d="M85.7723 112.016C85.5972 112.016 85.4596 111.878 85.4596 111.701C85.4596 96.9265 73.7589 81.9248 73.64 81.7736C73.5337 81.635 73.5525 81.4397 73.6901 81.3326C73.8277 81.2255 74.0215 81.2444 74.1278 81.383C74.2466 81.5342 86.0787 96.706 86.0787 111.701C86.0787 111.878 85.9411 112.016 85.766 112.016H85.7723Z" fill="#024F3C"/>
<path d="M119.225 112.916L94.3293 104.382L85.8591 129.464L110.755 137.998L119.225 112.916Z" fill="#CAFFF2"/>
<path d="M78.2739 110.731L92.4511 109.912L90.7376 114.99C90.7376 114.99 98.7549 119.426 99.7055 122.003C100.443 124.019 98.536 125.229 97.8293 125.14C97.8293 125.14 98.6048 126.438 97.4041 127.358C96.2034 128.278 94.296 127.717 94.296 127.717C94.296 127.717 94.74 128.782 93.4142 129.406C92.0884 130.03 90.2373 129.406 90.2373 129.406C90.2373 129.406 90.4312 130.729 89.0429 131.158C83.9273 132.726 71.6763 125.645 71.6763 125.645L75.6787 118.342L78.2739 110.731Z" fill="#FFB9BA"/>
<path d="M67.8553 130.641C67.7677 130.641 67.6864 130.603 67.6239 130.54C67.5051 130.408 67.5176 130.213 67.6426 130.093C67.7114 130.03 74.553 123.666 77.8737 111.008C74.4967 110.643 50.6138 107.984 44.5164 105.905C40.1763 104.431 37.3058 102.282 35.98 99.5287C34.8481 97.1723 34.8481 94.3685 35.98 91.193C36.0363 91.0292 36.2177 90.9473 36.3803 91.004C36.5429 91.0607 36.6304 91.2434 36.5679 91.4072C35.4923 94.4126 35.486 97.0526 36.5429 99.2515C37.7874 101.847 40.539 103.882 44.7102 105.306C51.0703 107.467 78.0238 110.391 78.299 110.416L78.6617 110.454L78.5742 110.807C75.2347 123.887 68.1367 130.49 68.0616 130.553C67.9991 130.609 67.9241 130.635 67.849 130.635L67.8553 130.641Z" fill="#024F3C"/>
<path d="M119.215 64.671C119.655 63.3665 115.074 60.6162 108.983 58.5281C102.891 56.44 97.5956 55.8048 97.1551 57.1094C96.7146 58.4139 101.296 61.1642 107.387 63.2522C113.479 65.3403 118.774 65.9755 119.215 64.671Z" fill="#024F3C"/>
<path d="M120.343 51.9404C122.288 50.6929 125.289 50.0754 125.108 48.3805C124.933 46.692 123.782 45.4445 122.106 45.98C120.43 46.5156 115.396 49.5399 115.133 49.0043C114.871 48.4688 114.958 46.692 114.958 46.692L116.722 45.1799V39.4841C116.722 39.4841 114.689 39.4841 113.101 40.4607C111.512 41.4373 107.185 44.5498 106.478 48.0214C105.772 51.493 103.364 56.6847 102.563 57.8125C101.669 59.0726 100.806 59.9484 100.543 60.3012C102.338 61.2904 104.721 62.3363 107.391 63.2499C108.304 63.565 109.199 63.8422 110.062 64.0879C111.481 63.042 114.771 60.4462 115.659 58.1654C116.809 55.2293 118.398 53.1816 120.336 51.9404H120.343Z" fill="#FFB9BA"/>
<path d="M109.624 99.3082C109.574 99.3082 109.518 99.2956 109.468 99.264C109.318 99.1758 109.267 98.9868 109.349 98.8356C118.798 82.2336 118.636 64.6424 118.636 64.4659C118.636 64.2895 118.773 64.1509 118.942 64.1446C119.105 64.1257 119.255 64.2832 119.261 64.4533C119.261 64.6298 119.43 82.3911 109.893 99.1506C109.837 99.2514 109.73 99.3082 109.624 99.3082Z" fill="#024F3C"/>
<path d="M54.7037 55.6261C52.8777 55.6261 51.4706 54.6496 51.4456 54.6369C51.3017 54.5361 51.2705 54.3408 51.3705 54.1959C51.4706 54.051 51.6644 54.0195 51.8083 54.1203C51.9646 54.2337 55.6856 56.7791 58.6561 52.7279C58.7562 52.5893 58.9563 52.5578 59.0939 52.6586C59.2314 52.7594 59.2627 52.961 59.1627 53.0996C57.7243 55.0654 56.0983 55.6261 54.7163 55.6261H54.7037Z" fill="#DC373A"/>
<path d="M47.2492 48.3616C47.1742 48.3616 47.0929 48.3364 47.0366 48.2734C46.9115 48.1537 46.9052 47.9584 47.0241 47.8261C47.0491 47.8009 49.4192 45.3247 52.0145 47.4039C52.1521 47.511 52.1709 47.7126 52.0646 47.845C51.9583 47.9836 51.7581 48.0025 51.6268 47.8954C49.488 46.1816 47.5619 48.1726 47.4806 48.2608C47.418 48.3238 47.3368 48.3616 47.2555 48.3616H47.2492Z" fill="#024F3C"/>
<path d="M56.2609 46.8873C56.2109 46.8873 56.1608 46.8747 56.1108 46.8495C55.9607 46.7676 55.9044 46.5786 55.9857 46.4211C56.0107 46.3707 56.6861 45.1358 57.9119 44.8208C58.606 44.6443 59.3252 44.7956 60.0507 45.2807C60.1945 45.3752 60.232 45.5705 60.1382 45.7154C60.0444 45.8604 59.8505 45.9045 59.7067 45.8036C59.1376 45.4256 58.5873 45.2996 58.0682 45.4256C57.1114 45.665 56.5423 46.7046 56.5361 46.7172C56.4798 46.8243 56.3735 46.881 56.2609 46.881V46.8873Z" fill="#024F3C"/>
<path d="M97.8294 125.456C97.7106 125.456 97.5918 125.386 97.5417 125.267C97.473 125.109 97.5418 124.92 97.7044 124.851L97.7794 124.819C98.2985 124.599 99.5054 124.076 99.6242 123.087C99.7431 122.091 98.7362 120.762 96.7225 119.256C91.1379 115.085 86.9667 113.856 86.9292 113.844C86.7603 113.793 86.6665 113.623 86.7166 113.453C86.7666 113.283 86.9354 113.188 87.1043 113.239C87.2794 113.289 91.4194 114.505 97.0977 118.752C99.3678 120.447 100.4 121.889 100.25 123.162C100.093 124.517 98.5924 125.159 98.0295 125.399L97.9545 125.43C97.917 125.449 97.8732 125.456 97.8294 125.456Z" fill="#024F3C"/>
<path d="M95.6344 128.259C95.1591 128.259 94.6588 128.184 94.2023 128.026C91.9322 127.232 87.6109 124.775 87.4233 124.674C87.2732 124.586 87.2169 124.397 87.3044 124.246C87.392 124.095 87.5796 124.038 87.7297 124.126C87.7735 124.151 92.1886 126.659 94.4024 127.434C95.5594 127.837 96.8539 127.56 97.1666 127.176C97.2729 127.037 97.473 127.018 97.6043 127.125C97.7357 127.232 97.7607 127.434 97.6544 127.566C97.2979 128.014 96.4974 128.259 95.6344 128.259Z" fill="#024F3C"/>
<path d="M92.1821 129.973C90.206 129.973 87.3793 128.978 86.041 128.392C85.8846 128.322 85.8096 128.133 85.8784 127.976C85.9472 127.818 86.1285 127.743 86.2911 127.812C87.9671 128.543 91.069 129.545 92.7512 129.305C93.239 129.236 93.5892 129.053 93.7893 128.763C94.0958 128.335 93.9957 127.787 93.9957 127.78C93.9645 127.61 94.077 127.447 94.2459 127.415C94.4147 127.377 94.5773 127.491 94.6148 127.661C94.6211 127.692 94.7712 128.467 94.3084 129.122C94.002 129.564 93.5079 129.828 92.845 129.929C92.6387 129.96 92.4198 129.973 92.1884 129.973H92.1821Z" fill="#024F3C"/>
<path d="M87.6484 131.737C87.4358 131.737 87.2169 131.725 86.9855 131.706C83.5897 131.384 78.6493 129.488 76.9108 128.669C76.7544 128.593 76.6856 128.404 76.7607 128.247C76.8357 128.089 77.0233 128.02 77.1797 128.095C78.8807 128.896 83.7336 130.761 87.048 131.076C88.1925 131.183 89.043 130.994 89.5058 130.528C89.9748 130.061 89.931 129.463 89.931 129.438C89.9185 129.267 90.0436 129.11 90.2124 129.097C90.3813 129.078 90.5376 129.204 90.5501 129.381C90.5501 129.419 90.6252 130.282 89.956 130.962C89.4495 131.473 88.674 131.731 87.6484 131.731V131.737Z" fill="#024F3C"/>
<path d="M87.5921 86.7636C87.4732 86.7636 87.3607 86.6943 87.3107 86.5872C87.2731 86.5116 83.4584 78.5981 76.4042 72.5621C76.2728 72.4487 76.2541 72.2534 76.3666 72.1148C76.4792 71.9825 76.6731 71.9636 76.8044 72.077C82.7517 77.1678 86.4226 83.5692 87.5233 85.6358L94.8652 63.1301C94.9214 62.9663 95.0965 62.8718 95.2591 62.9285C95.4217 62.9852 95.5093 63.1616 95.4593 63.3255L87.886 86.5494C87.8485 86.6691 87.7359 86.7573 87.6108 86.7636C87.6046 86.7636 87.5983 86.7636 87.5921 86.7636Z" fill="#024F3C"/>
<path d="M96.0783 124.712C96.022 124.712 95.9657 124.699 95.9157 124.662L88.6176 120.094C88.4737 119.999 88.4237 119.81 88.5175 119.659C88.6113 119.508 88.7989 119.464 88.949 119.558L96.2471 124.126C96.3909 124.221 96.441 124.41 96.3472 124.561C96.2909 124.655 96.1846 124.712 96.0783 124.712Z" fill="#024F3C"/>
</g>
<defs>
<clipPath id="clip0_410_21363">
<rect width="126" height="116" fill="white" transform="translate(17 22)"/>
</clipPath>
</defs>
</svg>
