<svg width="160" height="160" viewBox="0 0 160 160" fill="none" xmlns="http://www.w3.org/2000/svg">
<g clip-path="url(#clip0_410_21362)">
<path d="M37.5808 44.3858C39.162 43.0576 40.539 41.69 41.6657 40.375C40.5061 38.7773 36.5003 33.6355 36.3751 33.0964C36.0655 31.7551 37.1328 31.6433 37.2843 29.4012C37.5545 25.5219 36.4015 23.5559 34.8202 22.1555C34.2141 21.6163 33.3378 21.5111 32.8042 21.5045C32.5275 21.5045 32.2771 21.3467 32.1585 21.0969C31.7105 20.1106 30.6168 17.7567 28.3767 18.526C27.204 18.9271 27.2237 20.0186 26.4068 20.367C25.8533 20.6037 24.9639 20.0186 23.6133 20.8207C21.3798 22.1357 22.4603 22.4185 21.2941 23.4902C21.0701 23.7006 19.8578 23.4376 18.5797 24.5817C17.3015 25.7192 18.0921 28.9081 21.3995 34.5824C22.961 37.265 28.8774 46.6608 30.3664 49.0147C32.4945 48.1139 35.0574 46.5095 37.5874 44.3858H37.5808Z" fill="#FFB9BA"/>
<path d="M127.77 136.345C127.52 140.527 118.217 141.947 98.7086 140.369C78.5084 138.732 66.2143 131.874 66.7216 127.39C67.9735 116.37 70.3321 101.865 70.5957 98.6039C71.0503 93.0019 72.704 88.0837 64.3959 85.1118C48.2542 79.3455 31.6579 63.2628 27.8102 54.656C25.2275 48.8765 43.3128 34.3719 47.0353 38.58C51.5945 43.7414 63.6251 65.4063 88.9182 62.6053C107.84 60.5144 120.325 67.6944 127.902 75.3084C130.254 77.6688 145.263 98.4526 139.807 118.625C137.758 126.193 133.911 129.329 127.889 130.289C127.889 130.289 127.948 133.255 127.764 136.351L127.77 136.345Z" fill="#2EB593"/>
<path d="M109.296 110.452C114.486 106.1 117.568 101.235 116.18 99.5863C114.791 97.9377 109.459 100.129 104.269 104.482C99.0791 108.834 95.9971 113.698 97.3853 115.347C98.7734 116.995 104.106 114.804 109.296 110.452Z" fill="#024F3C"/>
<path d="M109.29 110.446C110.871 109.117 112.248 107.75 113.375 106.435C112.215 104.837 108.209 99.6954 108.084 99.1562C107.774 97.8149 108.842 97.7031 108.993 95.461C109.263 91.5817 108.11 89.6158 106.529 88.2153C105.923 87.6761 105.047 87.5709 104.513 87.5643C104.236 87.5643 103.986 87.4065 103.867 87.1567C103.419 86.1704 102.326 83.8165 100.086 84.5858C98.913 84.9869 98.8734 85.96 98.1158 86.4269C96.9101 87.183 96.2908 86.177 94.9928 87.0712C93.5631 88.0575 94.4921 88.2679 93.0031 89.55C91.6722 90.6941 91.5668 89.4974 90.2887 90.6415C89.0105 91.779 89.8011 94.9679 93.1085 100.642C94.67 103.325 100.586 112.721 102.075 115.074C104.203 114.174 106.766 112.569 109.296 110.446H109.29Z" fill="#FFB9BA"/>
<path d="M112.597 53.5251C112.235 53.5251 111.886 53.5843 111.55 53.6895C110.568 48.173 106.068 43.9978 100.652 43.9978C94.5185 43.9978 89.5508 49.3433 89.5508 55.9381C89.5508 62.5329 94.5185 67.8785 100.652 67.8785C105.179 67.8785 109.066 64.9592 110.792 60.784C111.326 61.1127 111.938 61.3034 112.597 61.3034C114.6 61.3034 116.221 59.561 116.221 57.411C116.221 55.2609 114.6 53.5185 112.597 53.5185V53.5251Z" fill="#FFB9BA"/>
<path d="M103.195 59.6465C105.655 59.6465 107.649 57.5005 107.649 54.8533C107.649 52.2061 105.655 50.0601 103.195 50.0601C100.735 50.0601 98.7415 52.2061 98.7415 54.8533C98.7415 57.5005 100.735 59.6465 103.195 59.6465Z" fill="#EFFFFB"/>
<path d="M103.195 59.9753C100.56 59.9753 98.4121 57.6806 98.4121 54.8533C98.4121 52.026 100.56 49.7313 103.195 49.7313C105.831 49.7313 107.979 52.026 107.979 54.8533C107.979 57.6806 105.831 59.9753 103.195 59.9753ZM103.195 50.3888C100.922 50.3888 99.071 52.3942 99.071 54.8533C99.071 57.3124 100.922 59.3178 103.195 59.3178C105.468 59.3178 107.32 57.3124 107.32 54.8533C107.32 52.3942 105.468 50.3888 103.195 50.3888Z" fill="#024F3C"/>
<path d="M91.8039 57.9305C94.2637 57.9305 96.2577 55.7845 96.2577 53.1372C96.2577 50.49 94.2637 48.344 91.8039 48.344C89.3441 48.344 87.3501 50.49 87.3501 53.1372C87.3501 55.7845 89.3441 57.9305 91.8039 57.9305Z" fill="#EFFFFB"/>
<path d="M91.804 58.2592C89.1686 58.2592 87.0208 55.9645 87.0208 53.1372C87.0208 50.31 89.1686 48.0153 91.804 48.0153C94.4394 48.0153 96.5872 50.31 96.5872 53.1372C96.5872 55.9645 94.4394 58.2592 91.804 58.2592ZM91.804 48.6728C89.531 48.6728 87.6796 50.6782 87.6796 53.1372C87.6796 55.5963 89.531 57.6017 91.804 57.6017C94.077 57.6017 95.9284 55.5963 95.9284 53.1372C95.9284 50.6782 94.077 48.6728 91.804 48.6728Z" fill="#024F3C"/>
<path d="M109.046 52.6506C109.046 50.928 109 47.4037 106.068 47.7325C103.795 47.9823 97.0946 49.6327 92.6276 46.6213C87.3239 43.0379 93.2996 34.1747 96.8706 33.7341C100.442 33.2936 97.5558 36.7784 100.066 36.9691C101.627 37.0874 109.151 35.6541 112.854 38.7312C117.875 42.9064 117.46 51.4014 113.875 54.4654C111.649 56.3721 109.039 54.3799 109.039 52.6572L109.046 52.6506Z" fill="#1B1634"/>
<path d="M99.552 64.2228C96.9166 64.2228 95.1706 62.1582 95.1443 62.1253C95.0257 61.9873 95.0521 61.7769 95.1904 61.6651C95.3288 61.5533 95.5396 61.573 95.6516 61.7111C95.7768 61.8689 98.847 65.472 102.991 62.224C103.136 62.1122 103.34 62.1385 103.452 62.2766C103.564 62.4212 103.538 62.625 103.4 62.7368C101.996 63.8348 100.692 64.2228 99.552 64.2228Z" fill="#DC373A"/>
<path d="M126.756 130.763C126.591 130.763 126.426 130.763 126.255 130.756C116.399 130.493 103.578 122.531 97.3514 115.305C97.2328 115.167 97.246 114.956 97.3844 114.838C97.5227 114.719 97.727 114.733 97.8521 114.871C103.986 121.991 116.603 129.836 126.275 130.099C130.01 130.191 132.975 129.145 135.057 126.969C139.353 122.491 144.729 108.157 134.346 85.9666C134.267 85.8022 134.346 85.605 134.504 85.5261C134.668 85.4472 134.866 85.5261 134.939 85.6839C145.474 108.197 139.933 122.833 135.532 127.422C133.403 129.638 130.452 130.763 126.756 130.763Z" fill="#024F3C"/>
<path d="M130.86 116.271C130.755 116.271 130.65 116.219 130.584 116.12C125.063 107.677 119.726 102.832 119.673 102.779C119.535 102.654 119.528 102.45 119.647 102.312C119.765 102.174 119.976 102.168 120.115 102.286C120.167 102.332 125.563 107.237 131.131 115.752C131.229 115.903 131.19 116.107 131.032 116.205C130.979 116.238 130.913 116.258 130.854 116.258L130.86 116.271Z" fill="#024F3C"/>
<path d="M98.7351 140.901C98.7351 140.901 98.7153 140.901 98.7087 140.901C81.9608 139.54 71.0042 134.741 67.5782 130.585C66.7019 129.52 66.3132 128.501 66.4186 127.554C67.1236 121.347 68.1712 114.082 69.0145 108.25C69.6668 103.746 70.1807 100.195 70.2927 98.7815C70.3454 98.1305 70.4113 97.4927 70.4837 96.8615C71.0042 92.0025 71.4193 88.1693 64.3103 85.6247C55.3039 82.4029 44.9468 75.4399 36.6124 66.9909C36.4873 66.8594 36.4873 66.6556 36.6124 66.5241C36.7442 66.3992 36.9485 66.3992 37.0802 66.5241C45.3487 74.9073 55.6136 81.8112 64.5343 85.0001C72.1242 87.7156 71.6499 92.1866 71.1426 96.9207C71.0767 97.5453 71.0042 98.1831 70.9581 98.8209C70.8395 100.254 70.3256 103.818 69.6733 108.335C68.83 114.167 67.7825 121.419 67.0775 127.62C66.9918 128.389 67.3278 129.244 68.0855 130.158C71.3139 134.076 82.2902 138.896 98.7614 140.237C98.9459 140.25 99.0777 140.408 99.0645 140.592C99.0513 140.763 98.9063 140.895 98.7351 140.895V140.901Z" fill="#024F3C"/>
<path d="M81.2624 63.2366C81.2624 63.2366 81.2426 63.2366 81.236 63.2366C64.0401 61.7243 54.3156 48.8174 49.0843 41.8807C48.1949 40.7038 47.4306 39.6847 46.8179 38.9943C45.6056 37.6267 42.285 38.4748 38.1475 41.2166C37.996 41.3153 37.7917 41.2758 37.6929 41.1246C37.5941 40.9734 37.6336 40.7695 37.7851 40.6709C42.285 37.6924 45.8428 36.9034 47.312 38.5603C47.9379 39.2704 48.7154 40.2961 49.6114 41.4862C54.7768 48.3375 64.3893 61.0997 81.2887 62.5856C81.4666 62.5988 81.605 62.7632 81.5852 62.9407C81.572 63.1117 81.4271 63.2432 81.2558 63.2432L81.2624 63.2366Z" fill="#024F3C"/>
<path d="M37.2844 29.7299C37.2844 29.7299 37.2713 29.7299 37.2581 29.7299C37.0736 29.7167 36.9418 29.5589 36.955 29.3814C37.2251 25.5284 36.4806 24.0951 35.0114 22.7932C34.5173 22.3527 33.786 21.9056 32.1388 21.9056C31.0056 21.9056 27.7839 22.997 26.7165 24.792C26.2356 25.5942 26.2422 26.4226 26.7363 27.3234C27.5796 28.862 29.5101 29.079 32.4814 27.9678L32.6264 27.9152C32.7977 27.8494 32.9888 27.9415 33.0481 28.1124C33.1074 28.2834 33.0217 28.4741 32.8504 28.5332L32.712 28.5858C28.5679 30.1376 26.8549 28.9277 26.1565 27.639C25.5636 26.5476 25.557 25.4495 26.1499 24.4567C27.4083 22.3395 30.92 21.248 32.1388 21.248C34.0166 21.248 34.8928 21.8135 35.4463 22.3001C37.0341 23.7006 37.8972 25.318 37.6073 29.4209C37.5941 29.5918 37.4491 29.7233 37.2778 29.7233L37.2844 29.7299Z" fill="#024F3C"/>
<path d="M32.1454 21.9056C31.9741 21.9056 31.8291 21.7741 31.8159 21.6032C31.7171 20.3802 31.3152 19.4794 30.6498 19.0126C30.1425 18.651 29.4836 18.5655 28.7589 18.7627C27.6586 19.0586 26.6901 20.538 26.6835 20.5512C26.5847 20.7024 26.3805 20.7484 26.2289 20.6498C26.0774 20.5512 26.0313 20.3473 26.1301 20.1961C26.1762 20.1238 27.2436 18.4866 28.5876 18.1315C29.51 17.8883 30.3533 18.0066 31.0319 18.48C31.8621 19.0652 32.3628 20.1304 32.4748 21.5572C32.488 21.7413 32.3562 21.8991 32.1717 21.9122C32.1651 21.9122 32.152 21.9122 32.1454 21.9122V21.9056Z" fill="#024F3C"/>
<path d="M28.0408 23.2075C27.9222 23.2075 27.8102 23.1418 27.7509 23.0366C27.7509 23.03 27.3819 22.3528 26.5847 21.2021C26.3607 20.8734 26.0708 20.6893 25.7085 20.6301C24.5818 20.4526 23.1587 21.5309 23.139 21.5374C22.994 21.6492 22.7898 21.6229 22.6778 21.4783C22.5658 21.3336 22.5921 21.1298 22.7371 21.018C22.803 20.9654 24.3974 19.7622 25.8073 19.9791C26.3541 20.0646 26.8021 20.3474 27.125 20.8273C27.9485 22.0174 28.3175 22.7012 28.3307 22.7275C28.4163 22.8853 28.357 23.0892 28.1989 23.1746C28.1462 23.2009 28.0935 23.2141 28.0408 23.2141V23.2075Z" fill="#024F3C"/>
<path d="M23.1917 31.5841C22.8491 31.5841 22.5197 31.4855 22.2364 31.2948C22.0849 31.1962 22.0453 30.9924 22.1442 30.8411C22.243 30.6899 22.4472 30.6504 22.5988 30.7491C22.8887 30.9398 23.2444 30.9792 23.5936 30.8543C24.0416 30.6965 24.3974 30.302 24.5489 29.8154C24.8257 28.8949 24.7664 27.284 22.8689 24.8512C22.4275 24.2858 21.9004 23.9702 21.3008 23.911C20.0293 23.7926 18.8038 24.8184 18.7906 24.8315C18.6523 24.9499 18.448 24.9367 18.3228 24.7986C18.2043 24.6606 18.2174 24.4502 18.3558 24.3318C18.4151 24.2792 19.8053 23.0957 21.3601 23.2535C22.1442 23.3324 22.8294 23.7335 23.3828 24.4436C25.4516 27.0933 25.4977 28.9278 25.1748 29.9995C24.964 30.6899 24.4567 31.2356 23.811 31.4723C23.6068 31.5447 23.3894 31.5841 23.1851 31.5841H23.1917Z" fill="#024F3C"/>
<path d="M105.185 91.8579C105.093 91.8579 105.001 91.8185 104.935 91.7396C103.92 90.5429 103.841 89.4975 103.775 88.5835C103.742 88.1233 103.709 87.6827 103.558 87.2619C103.07 85.9206 102.214 84.3952 100.85 84.7503C99.9144 84.987 99.5323 85.4801 99.1238 86.0061C98.7944 86.4335 98.4518 86.874 97.8259 87.091C97.2329 87.3014 96.7849 87.2619 96.3962 87.2291C95.9943 87.1962 95.6451 87.1633 95.118 87.3803C94.8083 87.5052 94.2681 87.9852 94.1297 88.7413C93.8464 90.2996 92.2784 90.4574 91.7645 90.51C91.5866 90.5298 91.4219 90.3983 91.4021 90.2141C91.3823 90.0366 91.5141 89.8722 91.6986 89.8525C92.4365 89.7736 93.3128 89.5698 93.4841 88.6164C93.6619 87.6564 94.3274 86.9792 94.8742 86.7622C95.5462 86.4927 96.0272 86.5321 96.4489 86.565C96.8178 86.5979 97.1407 86.6242 97.6018 86.4598C98.0433 86.302 98.3002 85.9732 98.6033 85.5919C99.0184 85.0593 99.5323 84.4018 100.685 84.1059C102.122 83.7377 103.36 84.7766 104.177 87.0318C104.362 87.5381 104.395 88.0444 104.434 88.5309C104.493 89.3857 104.559 90.2733 105.442 91.3122C105.561 91.4503 105.541 91.6607 105.403 91.779C105.343 91.8316 105.264 91.8579 105.192 91.8579H105.185Z" fill="#024F3C"/>
<path d="M71.6959 37.7779L69.9368 40.2567C69.3767 41.0523 68.1908 41.0523 67.6308 40.2567L65.8717 37.7779C65.5489 37.3176 65.147 36.9231 64.6924 36.6009L62.2085 34.8454C61.4113 34.2865 61.4113 33.103 62.2085 32.5441L64.6924 30.7886C65.1535 30.4664 65.5489 30.0653 65.8717 29.6116L67.6308 27.1328C68.1908 26.3372 69.3767 26.3372 69.9368 27.1328L71.6959 29.6116C72.0187 30.0719 72.4206 30.4664 72.8752 30.7886L75.3591 32.5441C76.1563 33.103 76.1563 34.2865 75.3591 34.8454L72.8752 36.6009C72.414 36.9231 72.0187 37.3242 71.6959 37.7779Z" fill="#55E8C3"/>
<path d="M133.773 80.7328L132.013 83.2116C131.453 84.0072 130.267 84.0072 129.707 83.2116L127.948 80.7328C127.626 80.2726 127.224 79.8781 126.769 79.5559L124.285 77.8003C123.488 77.2415 123.488 76.0579 124.285 75.4991L126.769 73.7435C127.23 73.4213 127.626 73.0203 127.948 72.5666L129.707 70.0878C130.267 69.2922 131.453 69.2922 132.013 70.0878L133.773 72.5666C134.095 73.0268 134.497 73.4213 134.952 73.7435L137.436 75.4991C138.233 76.0579 138.233 77.2415 137.436 77.8003L134.952 79.5559C134.491 79.8781 134.095 80.2792 133.773 80.7328Z" fill="#55E8C3"/>
<path d="M83.8583 28.3163L82.646 30.0324C82.2573 30.5847 81.4403 30.5847 81.0516 30.0324L79.8393 28.3163C79.6153 28.0007 79.3386 27.7245 79.0224 27.501L77.3028 26.2912C76.7493 25.9032 76.7493 25.0879 77.3028 24.7L79.0224 23.4902C79.3386 23.2666 79.6153 22.9905 79.8393 22.6749L81.0516 20.9588C81.4403 20.4065 82.2573 20.4065 82.646 20.9588L83.8583 22.6749C84.0823 22.9905 84.359 23.2666 84.6753 23.4902L86.3948 24.7C86.9483 25.0879 86.9483 25.9032 86.3948 26.2912L84.6753 27.501C84.359 27.7245 84.0823 28.0007 83.8583 28.3163Z" fill="#55E8C3"/>
<path d="M93.5763 54.0446C93.4774 54.0446 93.3852 54.0051 93.3193 53.9197C92.7264 53.1898 92.0939 52.8019 91.4284 52.7625C90.4863 52.723 89.7879 53.3674 89.7813 53.3739C89.6495 53.4989 89.4453 53.4989 89.3135 53.3674C89.1884 53.2359 89.1884 53.0255 89.3201 52.9005C89.3597 52.8677 90.2359 52.026 91.4614 52.1049C92.3179 52.1575 93.1151 52.631 93.8266 53.5054C93.9386 53.6435 93.9189 53.8539 93.7805 53.9657C93.7212 54.0183 93.6487 54.038 93.5763 54.038V54.0446Z" fill="#024F3C"/>
<path d="M105.205 55.8264C105.106 55.8264 105.014 55.787 104.948 55.7015C104.355 54.9716 103.723 54.5837 103.057 54.5443C102.115 54.4982 101.417 55.1492 101.41 55.1558C101.278 55.2807 101.074 55.2807 100.942 55.1492C100.817 55.0177 100.817 54.8073 100.949 54.6823C100.988 54.6495 101.858 53.8144 103.09 53.8868C103.947 53.9394 104.744 54.4128 105.455 55.2873C105.567 55.4253 105.548 55.6357 105.409 55.7475C105.35 55.8001 105.277 55.8198 105.205 55.8198V55.8264Z" fill="#024F3C"/>
<path d="M98.735 54.5377C98.735 54.5377 98.7021 54.5377 98.6889 54.5377L96.2116 54.2024C96.0337 54.1761 95.9086 54.0117 95.9283 53.8342C95.9547 53.6567 96.1194 53.5318 96.2973 53.5515L98.7745 53.8868C98.9524 53.9131 99.0776 54.0775 99.0578 54.255C99.0381 54.4194 98.8931 54.5377 98.7284 54.5377H98.735Z" fill="#024F3C"/>
</g>
<defs>
<clipPath id="clip0_410_21362">
<rect width="123" height="123" fill="white" transform="translate(18 18)"/>
</clipPath>
</defs>
</svg>
