<svg width="129" height="21" viewBox="0 0 129 21" fill="none" xmlns="http://www.w3.org/2000/svg">
<g id="Group 28">
<path id="path24" d="M124.909 2.11904C124.909 1.56361 125.449 1.32586 126.322 1.32586C127.194 1.32586 127.734 1.53184 127.734 2.11904C127.734 2.83281 126.861 2.91223 126.322 2.91223C125.449 2.91223 124.909 2.69036 124.909 2.11904ZM128.559 2.11904C128.559 1.02457 127.734 0.263153 126.322 0.263153C125.306 0.263153 124.084 0.770935 124.084 2.11904C124.084 3.46715 125.163 3.99082 126.322 3.99082C127.48 3.99082 128.559 3.40413 128.559 2.11904ZM124.909 7.25835V6.48105C124.909 6.00504 125.211 5.83082 125.465 5.83082C125.735 5.83082 126.021 6.02092 126.021 6.48105V7.25835H124.91H124.909ZM126.782 7.25835V6.51282L128.512 5.84671V4.72047L126.591 5.52954C126.416 5.05352 125.957 4.76812 125.465 4.76812C124.655 4.76812 124.148 5.29178 124.148 6.3386V8.27392H128.512V7.25886H126.782V7.25835ZM125.766 9.24131C124.719 9.3525 124.084 9.90743 124.084 11.0019C124.084 12.3188 125.115 12.9531 126.322 12.9531C127.528 12.9531 128.559 12.3188 128.559 11.0337C128.559 10.0345 127.972 9.33662 126.972 9.24131L126.909 10.2246C127.321 10.2881 127.734 10.51 127.734 10.986C127.734 11.7474 126.972 11.8269 126.369 11.8269C125.845 11.8269 124.893 11.7633 124.893 11.0337C124.893 10.4782 125.338 10.304 125.83 10.304L125.766 9.24131ZM128.496 13.9523H124.132V14.9673H128.496V13.9523ZM128.496 18.3302V19.028L124.941 20.0749V20.1066H128.496V20.9633H124.132V19.3611L126.751 18.5997L124.132 17.8065V16.2042H128.496V17.2193H124.941V17.2511L128.496 18.3296V18.3302ZM38.6731 20.9633H22.1685C20.8829 16.2206 18.1854 6.21102 18.1854 6.21102H18.1377V20.9633H11.3931V0.580325H23.1051C24.3431 5.2759 26.9298 14.9519 26.9298 14.9519H26.9775V0.580325H33.738V3.67365C32.0874 5.41835 31.0877 7.63906 31.0877 10.4311C31.0877 14.4442 33.3413 19.4093 38.6736 20.9639L38.6731 20.9633ZM118.894 0.580325V20.9639H111.816V5.00587H111.721L107.658 20.9639H101.136L97.0732 5.00587H96.9778V20.9639H84.5994L83.3614 16.5701H76.7121L75.4741 20.9639H63.6509C63.6509 20.9639 63.2541 17.9658 63.1429 17.2044C62.7938 14.6824 62.032 14.0635 60.5244 14.0635H58.461V20.948H46.3523C49.8438 20.1548 52.9857 18.5684 54.7952 17.4898L52.2562 7.86144L45.4957 9.63791L46.9397 15.0949C46.5112 15.3962 45.1148 15.8881 44.1464 15.8881C40.9251 15.8881 39.3856 12.6523 39.3856 9.87617C39.3856 5.38709 43.9562 3.67365 47.987 3.67365C48.9236 3.67365 50.1293 3.75307 50.3041 3.76895L49.4788 0.580325H63.5714C69.2052 0.580325 71.3951 3.24528 71.3951 6.10034C71.3951 10.3993 67.2849 11.2079 66.5072 11.3508C66.4913 11.3508 66.4913 11.4779 66.5072 11.4779C68.142 11.7951 69.3477 12.5883 70.1254 13.9681C70.0936 13.9046 74.4263 1.70657 74.8231 0.580325H85.6462L90.2168 13.3656H90.2803V0.580325H101.929C101.929 0.580325 104.627 11.7474 104.643 11.7474C105.532 8.01977 107.293 0.580325 107.293 0.580325H118.894H118.894ZM0.489524 0.580325H8.32914C8.32914 0.580325 8.31324 14.127 8.31324 20.9639H0.473633L0.489524 0.580325ZM79.9816 4.95822L77.7917 11.6839H82.3146L80.1088 4.95822H79.9816ZM58.4938 9.47907H60.8268C62.7312 9.47907 63.5248 8.49578 63.5248 7.29012C63.5248 5.7514 62.2078 5.14883 60.8268 5.14883H58.4938V9.47907Z" fill="#024F3C"/>
</g>
</svg>
