<svg width="19" height="19" viewBox="0 0 19 19" fill="none" xmlns="http://www.w3.org/2000/svg">
<path id="Vector" d="M9.50206 4.44496C6.94756 4.44496 4.88709 6.50543 4.88709 9.05994C4.88709 11.6144 6.94756 13.6749 9.50206 13.6749C12.0566 13.6749 14.117 11.6144 14.117 9.05994C14.117 6.50543 12.0566 4.44496 9.50206 4.44496ZM9.50206 12.0603C7.85128 12.0603 6.50173 10.7147 6.50173 9.05994C6.50173 7.40513 7.84726 6.0596 9.50206 6.0596C11.1569 6.0596 12.5024 7.40513 12.5024 9.05994C12.5024 10.7147 11.1529 12.0603 9.50206 12.0603ZM15.3822 4.25619C15.3822 4.85465 14.9003 5.33261 14.3058 5.33261C13.7074 5.33261 13.2294 4.85063 13.2294 4.25619C13.2294 3.66174 13.7114 3.17976 14.3058 3.17976C14.9003 3.17976 15.3822 3.66174 15.3822 4.25619ZM18.4388 5.34868C18.3705 3.90675 18.0412 2.6295 16.9848 1.57717C15.9325 0.524848 14.6552 0.195494 13.2133 0.123197C11.7272 0.0388498 7.2729 0.0388498 5.78679 0.123197C4.34888 0.191477 3.07163 0.520831 2.01528 1.57316C0.958942 2.62548 0.633604 3.90273 0.561307 5.34466C0.47696 6.83077 0.47696 11.2851 0.561307 12.7712C0.629588 14.2131 0.958942 15.4904 2.01528 16.5427C3.07163 17.595 4.34486 17.9244 5.78679 17.9967C7.2729 18.081 11.7272 18.081 13.2133 17.9967C14.6552 17.9284 15.9325 17.599 16.9848 16.5427C18.0372 15.4904 18.3665 14.2131 18.4388 12.7712C18.5232 11.2851 18.5232 6.83479 18.4388 5.34868ZM16.5189 14.3657C16.2056 15.153 15.5991 15.7595 14.8079 16.0768C13.623 16.5467 10.8114 16.4383 9.50206 16.4383C8.19268 16.4383 5.37711 16.5427 4.19625 16.0768C3.40901 15.7635 2.80252 15.157 2.48522 14.3657C2.01528 13.1809 2.12373 10.3693 2.12373 9.05994C2.12373 7.75055 2.0193 4.93498 2.48522 3.75412C2.7985 2.96689 3.405 2.36039 4.19625 2.04309C5.38112 1.57316 8.19268 1.6816 9.50206 1.6816C10.8114 1.6816 13.627 1.57717 14.8079 2.04309C15.5951 2.35638 16.2016 2.96287 16.5189 3.75412C16.9888 4.93899 16.8804 7.75055 16.8804 9.05994C16.8804 10.3693 16.9888 13.1849 16.5189 14.3657Z" fill="#A6FFE9"/>
</svg>
