<svg width="90" height="25" viewBox="0 0 90 25" fill="none" xmlns="http://www.w3.org/2000/svg">
<g id="Layer_1" clip-path="url(#clip0_167_664)">
<path id="Vector" d="M84.3939 0.808975L78.116 12.6119L84.3939 24.4149H89.8947L83.7261 12.6119L89.8947 0.808975H84.3939ZM71.3524 0.808975V20.4806L61.0794 0.808975L48.7422 24.4149H54.1701L61.0916 11.1791L64.0302 16.8013H61.0916L59.0394 20.7356H66.0823L68.0009 24.4149H76.3796V0.808975H71.3524ZM50.9765 0.808975L44.055 14.0448L37.1456 0.808975H31.7177L44.055 24.427L56.3922 0.808975H50.9765ZM27.0306 0.808975L16.7455 20.4927L12.629 12.6119L18.7976 0.808975H13.2969L7.01894 12.6119L13.2969 24.4149H20.1333L22.0519 20.7356H29.0949L27.0306 16.8013H24.1041L27.0427 11.1791L33.9399 24.4149H39.3678L27.0306 0.808975ZM0.243164 24.4149H5.25821V0.808975H0.243164V24.4149Z" fill="#024F3C"/>
</g>
<defs>
<clipPath id="clip0_167_664">
<rect width="89.6515" height="23.6181" fill="white" transform="translate(0.243164 0.808975)"/>
</clipPath>
</defs>
</svg>
