<svg width="100" height="40" viewBox="0 0 100 40" fill="none" xmlns="http://www.w3.org/2000/svg">
<g id="Group 30">
<g id="Vector">
<path d="M89.5034 38.7939L89.1436 38.9328C87.7336 39.4886 83.6396 39.9073 81.0121 39.9073C78.5499 39.9073 75.2864 38.9895 73.3785 36.428C72.6589 35.426 71.9392 33.8957 71.9392 31.6962H69.4498L67.5419 39.377H61.0693L63.3371 31.6962H61.2911L56.3666 39.377H51.1661L50.6954 31.6962H48.4004L46.1327 39.377H40.6015L42.9529 31.6962H29.9533V31.5846L27.6292 39.4044H21.7382L24.0331 31.6942H16.841L20.4098 39.4044H13.6047L10.5065 31.6942H8.65307C7.49198 35.4789 6.57789 38.5414 6.52343 38.7626L6.41258 39.3751H0.078125L5.88746 19.9489V0.831848H27.6292V19.7297L28.4597 16.947H29.9533V0.831848H51.6387V16.947H53.9628V0.831848H75.6481V21.2326C76.3677 20.2307 77.169 19.4244 77.9722 18.8119V0.886642H99.6576V31.7236H91.4697L89.5053 38.7919L89.5034 38.7939ZM77.9975 31.6962C77.9975 32.6981 78.192 33.5337 78.6335 34.0895C79.2422 34.9251 80.3489 35.3419 81.897 35.3419C83.6124 35.3419 84.2756 35.1462 84.4973 35.064L85.5767 31.6962H77.9975Z" fill="#024F3C"/>
<path d="M38.7753 24.0427C38.0829 26.1581 37.1163 27.2442 33.9909 27.3264H30.284L32.1919 20.759C36.8673 20.759 39.9928 20.3696 38.7753 24.0427ZM12.0274 17.7532H7.32472L1.10113 38.6001H5.74743C5.85829 38.1833 12.0255 17.7552 12.0255 17.7552L12.0274 17.7532ZM24.2257 17.7532H18.5272L9.45436 26.9663L14.1298 38.6001H19.1923L13.9645 27.3831L24.2257 17.7532ZM43.0618 24.0427C44.252 17.6143 39.1059 17.6965 34.3215 17.7532H29.0392L22.7612 38.6275H27.0205L29.4554 30.3889H32.857C39.524 30.3889 42.455 27.4105 43.0637 24.0427H43.0618ZM72.1046 17.7532H65.2994C57.0298 29.3029 55.0091 35.7881 55.0091 35.7881C55.8104 28.4399 54.7602 17.7532 54.7602 17.7532H48.0115L41.677 38.5982H45.5765L50.8315 20.759L51.9109 38.5982H55.9485L67.3999 20.759L62.1449 38.5982H66.9293L72.1026 17.7532H72.1046ZM85.602 17.307C81.4244 17.307 76.253 18.2542 73.2929 28.1052C70.8034 36.3438 76.8325 39.1539 81.0374 39.1539C83.803 39.1539 87.7044 38.6804 88.8655 38.2068L91.7983 27.6865H83.0017L82.0331 30.8312H86.6522L85.213 35.3947C85.213 35.3947 85.4075 36.1188 81.9223 36.1188C77.5249 36.1188 76.3074 33.0582 77.7447 27.9917C79.073 23.2873 81.2299 20.1426 85.1858 20.3383C87.8697 20.4498 89.3906 21.4792 88.6438 23.9566C88.6165 24.1229 88.5893 24.346 88.5057 24.485H92.7649C93.8444 21.2835 91.6855 17.3051 85.6 17.3051" fill="#F8F9F0"/>
</g>
</g>
</svg>
