<svg width="136" height="135" viewBox="0 0 136 135" fill="none" xmlns="http://www.w3.org/2000/svg">
<g id="Logos_empresas">
<g id="Vector">
<path d="M4.97756 83.7706C4.97756 83.7706 4.48795 72.519 14.4375 62.3405C16.5409 60.1535 18.7816 58.4341 20.9549 57.0008V71.4434H28.384C28.0342 71.8369 27.647 72.2329 27.2623 72.6263C17.3452 82.838 4.97756 83.7706 4.97756 83.7706ZM23.7227 55.3862C30.7296 51.6229 36.7573 51.1937 36.7573 51.1937C36.7573 51.1937 37.142 59.9032 30.4498 68.932H23.7227V55.3862Z" fill="#024F3C"/>
<path d="M119.382 77.4984H119.242V77.7846H119.347C119.452 77.7846 119.521 77.7488 119.521 77.6415C119.556 77.5342 119.487 77.4984 119.382 77.4984ZM119.626 78.3594L119.347 77.9302H119.242V78.3594H119.067V77.3553H119.347C119.556 77.3553 119.696 77.4626 119.696 77.6415C119.696 77.7846 119.626 77.8919 119.487 77.9276L119.766 78.3211L119.626 78.3568V78.3594ZM119.382 77.0692C118.962 77.0692 118.645 77.3553 118.645 77.8586C118.645 78.3619 118.959 78.6481 119.382 78.6481C119.804 78.6481 120.119 78.3619 120.119 77.8586C120.119 77.3553 119.804 77.0692 119.382 77.0692ZM119.382 78.7528C118.857 78.7528 118.505 78.3952 118.505 77.8561C118.505 77.317 118.855 76.9593 119.382 76.9593C119.871 76.9593 120.258 77.317 120.258 77.8561C120.258 78.3952 119.874 78.7528 119.382 78.7528ZM115.842 83.8421C115.07 83.8421 114.371 83.6633 113.951 83.4487L114.021 82.9479C114.441 83.1983 115.107 83.4129 115.877 83.4129C116.894 83.4129 117.593 82.8406 117.593 82.0512C117.593 81.369 117.208 81.0113 115.947 80.4748C114.545 79.8668 113.983 79.435 113.983 78.505C113.983 77.5751 114.93 76.8571 116.052 76.8571C116.789 76.8571 117.278 77.0002 117.663 77.2148L117.593 77.7156C117.208 77.501 116.716 77.3221 116.017 77.3221C115.105 77.3221 114.51 77.8944 114.51 78.505C114.51 79.1872 115 79.5448 116.157 80.0456C117.488 80.6179 118.083 81.0854 118.083 82.0154C118.153 83.091 117.171 83.8421 115.839 83.8421M109.112 83.7706V76.9619H112.897V77.3911H109.639V80.0073H112.232L112.302 80.4365H109.639V83.3746H113.004V83.8038H109.115M106.732 83.768H107.256V76.9593H106.732V83.768ZM103.192 77.3528V83.7322H102.667V77.3528H100.214V76.9236H105.575L105.645 77.3528H103.192ZM98.743 83.768H99.2676V76.9593H98.743V83.768ZM94.9235 83.8396C94.1516 83.8396 93.4522 83.6607 93.0325 83.4461L93.1025 82.9454C93.5221 83.1957 94.1891 83.4103 94.9585 83.4103C95.9752 83.4103 96.6746 82.838 96.6746 82.0486C96.6746 81.3665 96.2899 81.0088 95.0285 80.4723C93.6271 79.8642 93.065 79.4324 93.065 78.5025C93.065 77.5725 94.0118 76.8546 95.1334 76.8546C95.8703 76.8546 96.3599 76.9977 96.7446 77.2123L96.6746 77.713C96.2899 77.4984 95.7978 77.3196 95.0984 77.3196C94.1866 77.3196 93.5921 77.8919 93.5921 78.5025C93.5921 79.1846 94.0817 79.5423 95.2383 80.043C96.5697 80.6153 97.1643 81.0829 97.1643 82.0128C97.1992 83.0884 96.2525 83.8396 94.921 83.8396M89.2455 77.3528H87.9841V80.1478H89.1406C90.3322 80.1478 91.0666 79.647 91.0666 78.7503C91.0666 77.8535 90.3996 77.3528 89.2455 77.3528ZM91.6636 83.8396L89.0707 80.5796H88.019V83.768H87.4944V76.9593H89.3155C90.6469 76.9593 91.6287 77.6772 91.6287 78.7503C91.6287 79.7186 90.8218 80.3624 89.7027 80.5412L92.2607 83.7297L91.6661 83.837M82.416 83.7655V76.9568H86.2005V77.386H82.9406V80.0022H85.5335L85.6034 80.4314H82.9406V83.3695H86.3054V83.7987L82.416 83.7629M78.2468 83.7987H77.8271L74.8495 76.99L75.3741 76.8827L78.037 83.0833L80.6649 76.9542H81.2244L78.2468 83.7987ZM73.3407 83.7629H73.8653V76.9542H73.3407V83.7629ZM71.1674 83.7629L66.4712 77.7794V83.7629H65.9816V76.9542H66.4362L70.9926 82.7588V76.9542H71.4822V83.7629H71.1674ZM63.8083 83.7629L63.6684 82.9019C62.9315 83.4742 62.0921 83.8344 61.2503 83.8344C59.744 83.8344 58.7623 83.1523 58.7623 81.576V76.9542H59.2869V81.5402C59.2869 82.7946 60.0238 83.4027 61.2853 83.4027C62.1621 83.4027 62.9315 83.0092 63.6684 82.3986V76.9517H64.193V83.7603H63.8083M129.226 73.0453V66.2366H129.751V72.6161H132.798L132.868 73.0453H129.224M124.562 66.8089L123.056 70.2503H126.069L124.562 66.8089ZM127.295 73.1168L126.244 70.7153H122.879L121.862 73.0453H121.303L124.315 66.2009H124.805L127.817 73.0095L127.293 73.1168M119.584 73.0453L114.888 67.0618V73.0453H114.398V66.2366H114.853L119.407 72.0412V66.2366H119.896V73.0453H119.581M109.842 66.5228C108.161 66.5228 107.039 67.7772 107.039 69.6397C107.039 71.5022 108.161 72.7566 109.842 72.7566C111.523 72.7566 112.644 71.5022 112.644 69.6397C112.644 67.7772 111.488 66.5228 109.842 66.5228ZM109.807 73.1526C107.881 73.1526 106.477 71.6836 106.477 69.6397C106.477 67.5958 107.878 66.091 109.807 66.091C111.735 66.091 113.137 67.56 113.137 69.6039C113.172 71.6836 111.77 73.1526 109.807 73.1526ZM104.481 73.0453H105.006V66.2366H104.481V73.0453ZM100.696 66.6658V73.0453H100.172V66.6658H97.7188V66.2366H103.08L103.149 66.6658H100.696ZM95.0559 66.8089L93.5496 70.2503H96.5622L95.0559 66.8089ZM97.7888 73.1168L96.7371 70.7153H93.3373L92.3206 73.0453H91.761L94.7737 66.2009H95.2633L98.2759 73.0095L97.7863 73.1168M90.532 73.0453L85.8358 67.0618V73.0453H85.3462V66.2366H85.8008L90.3197 72.0412V66.2366H90.8093V73.0453H90.5295M81.3144 66.6658H80.0529V69.4608H81.2094C82.401 69.4608 83.1354 68.9601 83.1354 68.0633C83.1354 67.1666 82.4335 66.6658 81.3144 66.6658ZM83.6975 73.1168L81.1045 69.8569H80.0529V73.0453H79.5283V66.2366H81.3493C82.6808 66.2366 83.6625 66.9545 83.6625 68.0276C83.6625 68.9959 82.8556 69.6397 81.6991 69.8185L84.257 73.007L83.6975 73.1143M74.2375 73.0428V66.2341H78.022V66.6633H74.7621V69.2795H77.355L77.4249 69.7087H74.7621V72.6467H78.1269V73.076L74.2375 73.0402M70.7328 66.6607V73.0402H70.2082V66.6607H67.7551V66.2315H73.1159L73.1858 66.6607H70.7328ZM66.4936 73.0402L61.7974 67.0567V73.0402H61.3078V66.2315H61.7624L66.3163 72.0361V66.2315H66.8059V73.0402H66.4911M58.7473 73.0402H59.2719V66.2315H58.7473V73.0402ZM124.622 61.178V51.1937H131.245V52.9131H127.075V55.1H130.228L130.543 56.8552H127.073V59.4356H131.382V61.155L124.62 61.1908M120.101 52.9846V61.1908H117.613V52.9846H114.143V51.1937H123.393L123.708 52.9846H120.099M110.286 53.4854L108.85 57.1056H111.758L110.286 53.4854ZM113.439 61.2981L112.422 58.7892H108.183L107.201 61.1908H104.783L109.115 51.1579H111.673L115.912 60.9047L113.459 61.2981M97.7962 61.1908V51.1937H104.418V52.9131H100.249V55.1H103.402L103.717 56.8552H100.247V59.4356H104.556V61.155H97.7937M91.7661 52.8415H90.7144V55.8869H91.7311C93.0275 55.8869 93.7295 55.3862 93.7295 54.3464C93.7295 53.3781 93.0625 52.8415 91.7661 52.8415ZM94.324 61.2981L91.4513 57.3917H90.7144V61.1908H88.2963V51.1937H92.0108C94.5688 51.1937 96.0751 52.2335 96.0751 54.2033C96.0751 55.6366 95.2683 56.5333 93.8669 56.9625L96.8445 60.9047L94.3215 61.2981M84.1246 61.1908L83.9498 60.1867C82.8631 60.8689 81.7765 61.2981 80.4451 61.2981C78.1319 61.2981 76.8004 60.3298 76.8004 57.964V51.2294H79.2885V57.7162C79.2885 58.9349 79.848 59.5072 81.0745 59.5072C82.0563 59.5072 82.8956 59.1137 83.7374 58.4673V51.2294H86.2254V61.2291H84.1221M71.0875 53.4879L69.6162 57.1081H72.5238L71.0875 53.4879ZM74.205 61.3007L73.1883 58.7918H68.9492L67.9675 61.1934H65.5494L69.871 51.1579H72.4289L76.6681 60.9047L74.215 61.2981M58.7623 61.1908V51.1937H61.2503V59.3283H64.825L65.1747 61.155H58.7623M47.199 83.768H47.5137V51.1937H47.199V83.7706V83.768Z" fill="#024F3C"/>
</g>
</g>
</svg>
