<svg width="18" height="19" viewBox="0 0 18 19" fill="none" xmlns="http://www.w3.org/2000/svg">
<path id="Vector" d="M4.019 18.0599H0.287245V6.04253H4.019V18.0599ZM2.15111 4.40324C0.958078 4.40324 -0.0100098 3.41485 -0.0100098 2.22154C-0.0100098 1.02824 0.958078 0.0599365 2.15111 0.0599365C3.34415 0.0599365 4.31224 1.02824 4.31224 2.22154C4.31224 3.41485 3.34415 4.40324 2.15111 4.40324ZM17.986 18.0599H14.2622V12.2099C14.2622 10.8157 14.2341 9.02779 12.3221 9.02779C10.3819 9.02779 10.0846 10.5425 10.0846 12.1095V18.0599H6.35687V6.04253H9.93598V7.68181H9.9882C10.4863 6.73762 11.7034 5.74119 13.5191 5.74119C17.2951 5.74119 17.99 8.22824 17.99 11.4586V18.0599H17.986Z" fill="#A6FFE9"/>
</svg>
