<svg width="147" height="23" viewBox="0 0 147 23" fill="none" xmlns="http://www.w3.org/2000/svg">
<path d="M1.89748 12.2584C1.12249 11.3456 0.783262 10.2893 0.877033 9.08679C0.979078 7.89259 1.48654 6.908 2.39667 6.13301C3.21579 5.42973 4.15625 5.07947 5.22083 5.07947C6.48122 5.07947 7.58164 5.59797 8.52211 6.6322C8.68207 6.81974 8.82273 7.01556 8.94684 7.21965C9.03233 7.35755 9.07646 7.51199 9.07646 7.68574C9.07646 7.92569 8.99097 8.12978 8.81997 8.29801C8.64898 8.46901 8.44489 8.5545 8.2077 8.5545C7.93191 8.5545 7.73057 8.46901 7.59819 8.29525C7.46857 8.1215 7.33343 7.94499 7.19553 7.76297C6.72392 7.21413 6.13371 6.908 5.42492 6.85008C4.70785 6.79216 4.07351 6.99625 3.52468 7.46235C2.97309 7.92845 2.66971 8.51865 2.61179 9.22745C2.55388 9.94452 2.76072 10.5788 3.22958 11.1277C3.61293 11.4973 4.23623 11.7951 5.09672 12.0185C6.61084 12.3522 7.76091 12.9672 8.54969 13.8636C9.36881 14.8344 9.77698 15.9348 9.77698 17.1649C9.77698 17.3303 9.76871 17.4986 9.75492 17.6641C9.63909 19.0982 9.03509 20.2786 7.94018 21.2053C6.96386 22.0382 5.8524 22.4546 4.6058 22.4546C3.05031 22.4546 1.70994 21.8396 0.587447 20.6096C0.435758 20.4441 0.29786 20.2648 0.173752 20.0773C0.0579173 19.9256 0 19.7518 0 19.556C0 19.3161 0.0854969 19.112 0.256491 18.9438C0.427485 18.7755 0.631574 18.6873 0.868759 18.6873C1.18041 18.6873 1.42587 18.8224 1.60789 19.0899C1.69339 19.2278 1.79544 19.3575 1.91127 19.4816C2.5263 20.2207 3.31507 20.6289 4.2776 20.7089C5.23186 20.7806 6.0758 20.5075 6.80666 19.8897C7.53752 19.272 7.94294 18.4832 8.02292 17.5289C8.1029 16.5664 7.83538 15.7197 7.22035 14.9888C6.68531 14.3876 5.84964 13.9381 4.7106 13.6429C3.61018 13.4471 2.66971 12.9866 1.88645 12.264L1.89748 12.2584Z" fill="#024F3C"/>
<path d="M22.8112 21.5886C22.8112 21.8285 22.7257 22.0326 22.5547 22.2008C22.3837 22.3718 22.1796 22.4546 21.9424 22.4546C21.7052 22.4546 21.4984 22.3691 21.3301 22.2008C21.1591 22.0298 21.0736 21.8257 21.0736 21.5886V20.8825C19.987 21.9333 18.6852 22.4573 17.1656 22.4573C15.646 22.4573 14.278 21.9057 13.1748 20.8025C12.0716 19.6993 11.52 18.3673 11.52 16.8118V11.1662C11.52 10.9263 11.6055 10.7222 11.7765 10.5539C11.9475 10.3829 12.1516 10.2974 12.3888 10.2974C12.626 10.2974 12.8328 10.3829 13.0011 10.5539C13.1721 10.7249 13.2576 10.929 13.2576 11.1662V16.8118C13.2576 17.8901 13.6382 18.8113 14.4021 19.5752C15.1661 20.3392 16.0872 20.7198 17.1656 20.7198C18.244 20.7198 19.1651 20.3392 19.9291 19.5752C20.693 18.8113 21.0736 17.8901 21.0736 16.8118V11.1662C21.0736 10.9263 21.1591 10.7222 21.3301 10.5539C21.5011 10.3857 21.7052 10.2974 21.9424 10.2974C22.1796 10.2974 22.3864 10.3829 22.5547 10.5539C22.7229 10.7249 22.8112 10.929 22.8112 11.1662V21.5913V21.5886Z" fill="#024F3C"/>
<path d="M26.6999 16.3761C26.0407 16.1306 25.5801 15.8741 25.3209 15.6038C24.8079 15.0964 24.5487 14.4841 24.5487 13.7698C24.5487 13.0555 24.8162 12.4267 25.3512 11.8916C26.3937 10.827 27.7534 10.2948 29.433 10.2948C31.2505 10.2948 32.806 11.0229 34.1022 12.4763C34.2181 12.6142 34.2732 12.7852 34.265 12.9865C34.265 13.2265 34.1795 13.4306 34.0085 13.5988C33.8375 13.7698 33.6334 13.8553 33.3962 13.8553C33.159 13.8553 32.966 13.7781 32.8198 13.6264C32.6736 13.4747 32.5688 13.3671 32.5054 13.3009C31.6587 12.4542 30.6327 12.0295 29.433 12.0295C28.2333 12.0295 27.2708 12.4046 26.5565 13.1575C26.3827 13.3671 26.2944 13.6181 26.2944 13.9077C26.3165 14.2469 26.493 14.4786 26.8267 14.6027L32.1689 16.3733C32.8281 16.6188 33.2886 16.8753 33.5479 17.1455C34.0609 17.653 34.3201 18.2653 34.3201 18.9796C34.3201 19.6939 34.0526 20.3227 33.5176 20.8578C32.475 21.9223 31.1126 22.4546 29.4358 22.4546C27.6128 22.4546 26.0545 21.7265 24.7665 20.2731C24.659 20.1214 24.6038 19.9504 24.6038 19.7629C24.6038 19.5229 24.6893 19.3188 24.8603 19.1506C25.0313 18.9796 25.2354 18.8941 25.4726 18.8941C25.7098 18.8941 25.9028 18.9713 26.049 19.123C26.1924 19.2747 26.3 19.3823 26.3634 19.4484C27.2101 20.2951 28.2361 20.7199 29.4358 20.7199C30.6355 20.7199 31.5953 20.3448 32.3123 19.5891C32.4861 19.3795 32.5743 19.1285 32.5743 18.8389C32.5523 18.4997 32.3758 18.268 32.042 18.1439L26.6999 16.3733V16.3761Z" fill="#024F3C"/>
<path d="M46.4827 20.6316C45.2665 21.8478 43.8185 22.4546 42.1389 22.4546C40.4593 22.4546 39.0252 21.8616 37.8393 20.673C36.6534 19.4843 36.0576 18.0529 36.0576 16.3733C36.0576 14.6937 36.6506 13.2595 37.8393 12.0736C39.028 10.8877 40.4593 10.292 42.1389 10.292C43.8185 10.292 45.2527 10.8849 46.4386 12.0736C47.6245 13.2623 48.2203 14.6937 48.2203 16.3733V21.5858C48.2203 21.8258 48.1348 22.0299 47.9638 22.1981C47.7928 22.3691 47.5887 22.4518 47.3515 22.4518C47.1143 22.4518 46.9075 22.3663 46.7392 22.1981C46.5682 22.0271 46.4827 21.823 46.4827 21.5858V20.6316ZM42.1389 12.0323C40.9365 12.0323 39.9133 12.457 39.0666 13.3037C38.2199 14.1504 37.7952 15.1763 37.7952 16.376C37.7952 17.5758 38.2199 18.6017 39.0666 19.4484C39.9133 20.2951 40.9392 20.7198 42.1389 20.7198C43.3387 20.7198 44.3646 20.2951 45.2113 19.4484C46.058 18.6017 46.4827 17.5758 46.4827 16.376C46.4827 15.1763 46.058 14.1504 45.2113 13.3037C44.3646 12.457 43.3387 12.0323 42.1389 12.0323Z" fill="#024F3C"/>
<path d="M49.9578 11.1635C49.9578 10.9236 50.0433 10.7195 50.2143 10.5513C50.3853 10.3803 50.5894 10.2948 50.8265 10.2948C51.0637 10.2948 51.2706 10.3803 51.4388 10.5513C51.6098 10.7222 51.6953 10.9263 51.6953 11.1635V11.8696C52.7819 10.8188 54.0837 10.2948 55.6033 10.2948C57.123 10.2948 58.4909 10.8464 59.5941 11.9495C60.6973 13.0527 61.2489 14.3848 61.2489 15.9403V21.5886C61.2489 21.8286 61.1634 22.0327 60.9924 22.2009C60.8214 22.3719 60.6173 22.4546 60.3801 22.4546C60.1429 22.4546 59.9361 22.3691 59.7679 22.2009C59.5969 22.0299 59.5114 21.8258 59.5114 21.5886V15.9403C59.5114 14.862 59.1308 13.9408 58.3668 13.1768C57.6029 12.4129 56.6817 12.0323 55.6033 12.0323C54.525 12.0323 53.6038 12.4129 52.8399 13.1768C52.0759 13.9408 51.6953 14.862 51.6953 15.9403V21.5886C51.6953 21.8286 51.6098 22.0327 51.4388 22.2009C51.2678 22.3719 51.0637 22.4546 50.8265 22.4546C50.5894 22.4546 50.3825 22.3691 50.2143 22.2009C50.046 22.0327 49.9578 21.8258 49.9578 21.5886V11.1635Z" fill="#024F3C"/>
<path d="M73.4143 20.6316C72.198 21.8478 70.7501 22.4546 69.0705 22.4546C67.3909 22.4546 65.9567 21.8616 64.7708 20.673C63.5849 19.4843 62.9892 18.0529 62.9892 16.3733C62.9892 14.6937 63.5821 13.2595 64.7708 12.0736C65.9595 10.8877 67.3909 10.292 69.0705 10.292C70.7501 10.292 72.1842 10.8849 73.3702 12.0736C74.5561 13.2623 75.1518 14.6937 75.1518 16.3733V21.5858C75.1518 21.8258 75.0663 22.0299 74.8981 22.1981C74.7271 22.3691 74.523 22.4518 74.2858 22.4518C74.0486 22.4518 73.8418 22.3663 73.6708 22.1981C73.4998 22.0271 73.4143 21.823 73.4143 21.5858V20.6316ZM69.0705 12.0323C67.868 12.0323 66.8448 12.457 65.9981 13.3037C65.1514 14.1504 64.7267 15.1763 64.7267 16.376C64.7267 17.5758 65.1514 18.6017 65.9981 19.4484C66.8448 20.2951 67.8708 20.7198 69.0705 20.7198C70.2702 20.7198 71.2962 20.2951 72.1429 19.4484C72.9896 18.6017 73.4143 17.5758 73.4143 16.376C73.4143 15.1763 72.9896 14.1504 72.1429 13.3037C71.2962 12.457 70.2702 12.0323 69.0705 12.0323Z" fill="#024F3C"/>
<path d="M88.2454 18.794C87.8479 17.2181 86.2481 16.263 84.6722 16.6605C83.0964 17.0581 82.1412 18.6579 82.5388 20.2338C82.9363 21.8096 84.5361 22.7648 86.112 22.3672C87.6878 21.9696 88.643 20.3698 88.2454 18.794Z" fill="#2EB593"/>
<path d="M89.0517 8.41049L83.3423 9.85093C81.7665 10.2485 80.8113 11.8483 81.2089 13.4242C81.6065 15 83.2063 15.9552 84.7821 15.5576L90.4915 14.1172C92.0673 13.7196 93.0225 12.1198 92.6249 10.5439C92.2273 8.96808 90.6276 8.0129 89.0517 8.41049Z" fill="#2EB593"/>
<path d="M93.7914 0.0901123L82.3754 2.97033C80.7996 3.36791 79.8444 4.9677 80.242 6.54355C80.6395 8.11941 82.2393 9.07459 83.8152 8.67701L95.2312 5.79679C96.8071 5.3992 97.7623 3.79942 97.3647 2.22356C96.9671 0.647708 95.3673 -0.30747 93.7914 0.0901123Z" fill="#2EB593"/>
<path d="M103.884 19.5035C104.124 19.5035 104.328 19.589 104.497 19.76C104.668 19.931 104.75 20.1351 104.75 20.3723C104.75 20.6095 104.668 20.8163 104.499 20.9901C103.377 21.9664 102.056 22.4573 100.536 22.4573C98.8565 22.4573 97.4223 21.8644 96.2364 20.6757C95.0477 19.4898 94.4548 18.0556 94.4548 16.376C94.4548 14.6964 95.0477 13.2623 96.2364 12.0763C97.4223 10.8904 98.8565 10.2947 100.536 10.2947C102.216 10.2947 103.65 10.8877 104.836 12.0763C106.022 13.265 106.617 14.6964 106.617 16.376C106.617 16.616 106.532 16.82 106.364 16.9883C106.195 17.1565 105.989 17.2448 105.751 17.2448H96.2723C96.4322 18.0777 96.8294 18.8113 97.4665 19.4484C98.3132 20.2951 99.3391 20.7198 100.539 20.7198C101.625 20.7198 102.558 20.3751 103.341 19.6883C103.501 19.5642 103.68 19.5035 103.884 19.5035ZM104.808 15.5073C104.648 14.6743 104.251 13.9407 103.614 13.3036C102.767 12.4569 101.741 12.0322 100.542 12.0322C99.3419 12.0322 98.3159 12.4569 97.4692 13.3036C96.8321 13.9407 96.435 14.6743 96.275 15.5073H104.811H104.808Z" fill="#2EB593"/>
<path d="M108.358 11.1635C108.358 10.9235 108.443 10.7194 108.614 10.5512C108.785 10.3802 108.989 10.2947 109.226 10.2947C109.464 10.2947 109.67 10.3802 109.839 10.5512C110.01 10.7222 110.092 10.9263 110.092 11.1635V12.1177C111.309 10.9015 112.757 10.2947 114.436 10.2947C115.283 10.2947 116.061 10.4409 116.769 10.7277C116.899 10.7773 117.02 10.8546 117.128 10.9566C117.293 11.1304 117.379 11.3372 117.379 11.5744C117.379 11.8116 117.293 12.0184 117.125 12.1867C116.954 12.3577 116.75 12.4432 116.513 12.4432C116.375 12.4432 116.248 12.4156 116.132 12.3577C115.619 12.1398 115.054 12.0322 114.439 12.0322C113.237 12.0322 112.213 12.4569 111.367 13.3036C110.52 14.1503 110.095 15.1763 110.095 16.376V21.5886C110.095 21.8285 110.01 22.0326 109.841 22.2008C109.67 22.3718 109.466 22.4546 109.229 22.4546C108.992 22.4546 108.785 22.3691 108.617 22.2008C108.449 22.0326 108.36 21.8257 108.36 21.5886V11.1635H108.358Z" fill="#2EB593"/>
<path d="M118.783 11.1635C118.783 10.9235 118.868 10.7194 119.039 10.5512C119.21 10.3802 119.414 10.2947 119.652 10.2947C119.889 10.2947 120.096 10.3802 120.264 10.5512C120.435 10.7222 120.518 10.9263 120.518 11.1635V12.1177C121.734 10.9015 123.182 10.2947 124.861 10.2947C125.708 10.2947 126.486 10.4409 127.195 10.7277C127.324 10.7773 127.446 10.8546 127.553 10.9566C127.719 11.1304 127.804 11.3372 127.804 11.5744C127.804 11.8116 127.719 12.0184 127.55 12.1867C127.379 12.3577 127.175 12.4432 126.938 12.4432C126.8 12.4432 126.673 12.4156 126.557 12.3577C126.044 12.1398 125.479 12.0322 124.864 12.0322C123.662 12.0322 122.638 12.4569 121.792 13.3036C120.945 14.1503 120.52 15.1763 120.52 16.376V21.5886C120.52 21.8285 120.435 22.0326 120.267 22.2008C120.096 22.3718 119.891 22.4546 119.654 22.4546C119.417 22.4546 119.21 22.3691 119.042 22.2008C118.874 22.0326 118.786 21.8257 118.786 21.5886V11.1635H118.783Z" fill="#2EB593"/>
<path d="M138.632 19.5035C138.872 19.5035 139.076 19.589 139.244 19.76C139.415 19.931 139.498 20.1351 139.498 20.3723C139.498 20.6095 139.415 20.8163 139.247 20.9901C138.124 21.9664 136.803 22.4573 135.284 22.4573C133.604 22.4573 132.17 21.8644 130.984 20.6757C129.795 19.4898 129.202 18.0556 129.202 16.376C129.202 14.6964 129.795 13.2623 130.984 12.0763C132.17 10.8904 133.604 10.2947 135.284 10.2947C136.963 10.2947 138.397 10.8877 139.583 12.0763C140.769 13.265 141.365 14.6964 141.365 16.376C141.365 16.616 141.28 16.82 141.111 16.9883C140.943 17.1565 140.736 17.2448 140.499 17.2448H131.02C131.18 18.0777 131.577 18.8113 132.214 19.4484C133.061 20.2951 134.087 20.7198 135.286 20.7198C136.373 20.7198 137.305 20.3751 138.089 19.6883C138.248 19.5642 138.428 19.5035 138.632 19.5035ZM139.556 15.5073C139.396 14.6743 138.999 13.9407 138.362 13.3036C137.515 12.4569 136.489 12.0322 135.289 12.0322C134.089 12.0322 133.064 12.4569 132.217 13.3036C131.58 13.9407 131.183 14.6743 131.023 15.5073H139.559H139.556Z" fill="#2EB593"/>
<path d="M143.105 5.95085C143.105 5.71091 143.191 5.50682 143.362 5.33858C143.533 5.17035 143.737 5.08209 143.974 5.08209C144.211 5.08209 144.418 5.16759 144.586 5.33858C144.757 5.50957 144.84 5.71366 144.84 5.95085V20.7197H145.709C145.949 20.7197 146.153 20.8052 146.321 20.9762C146.489 21.1472 146.575 21.3513 146.575 21.5885C146.575 21.8257 146.489 22.0325 146.321 22.2008C146.15 22.3718 145.946 22.4545 145.709 22.4545H143.971C143.731 22.4545 143.527 22.369 143.359 22.2008C143.191 22.0325 143.103 21.8257 143.103 21.5885V5.95085H143.105Z" fill="#2EB593"/>
</svg>
