<svg xmlns="http://www.w3.org/2000/svg" width="391" height="70" viewBox="0 0 391 70" fill="none">
  <path d="M43.3615 63.1871C32.64 71.7994 16.6663 70.1349 3.92877 68.4703C2.59504 68.2428 2.86386 66.2578 4.21826 66.4232C15.4463 67.8913 27.5015 69.07 37.9956 64.1486C42.2242 62.0395 45.605 58.3381 46.7733 53.7063C47.5798 50.7804 47.8486 47.4823 46.5769 44.6907C40.7147 33.6177 16.0357 37.6086 5.55198 39.2421C4.40436 39.3662 2.52267 39.9762 1.31302 39.5419C-0.930534 38.7355 0.144715 35.9647 1.27166 34.7137C2.92589 32.6459 5.05571 31.0537 7.21655 29.6269C12.9857 25.9669 19.3751 23.2064 26.1471 22.3173C32.9191 21.3971 39.7739 21.8417 46.3598 23.7441C47.404 24.0749 46.9284 25.6464 45.8635 25.3156C36.4757 22.979 26.1058 23.2374 17.1109 27.0008C11.9828 29.2444 6.67892 31.7877 2.94657 36.0267C2.59504 36.4403 2.18149 37.102 2.09877 37.5569C2.23318 37.5879 2.49165 37.5879 2.75013 37.5569L5.17978 37.1537C16.8628 35.3547 34.8215 32.4288 45.0881 39.5109C52.7803 45.3214 49.875 57.6041 43.3408 63.1768L43.3615 63.1871ZM70.8941 33.7108C69.9429 33.4937 69.5707 34.9308 70.5219 35.1996C73.0756 35.9026 75.5776 37.5672 76.7046 39.8831C77.8522 42.1474 77.6454 45.0733 77.2525 47.8028C76.7976 50.5426 76.0015 53.2617 74.7091 55.6604C69.3846 65.4513 60.886 58.6483 57.5465 51.2043C55.396 46.6345 52.987 40.5448 56.616 36.2231C57.7429 35.2926 56.3368 33.6591 55.2719 34.6516C52.7389 37.1847 52.2736 40.5965 52.6045 43.6672C53.9382 51.5868 59.8521 63.9625 69.5293 62.7942C77.3042 61.0676 79.7339 50.4288 79.5478 43.5845C79.5891 38.6838 75.5673 34.662 70.8941 33.7211V33.7108ZM143.99 55.1951C144.176 55.3605 144.207 55.6397 144.063 55.8361C143.68 56.3531 143.298 56.8183 142.77 57.2629C142.005 57.9866 140.734 57.9763 140.485 56.7149C140.351 55.9912 140.33 55.2365 140.351 54.4817C139.317 54.1405 138.862 52.8792 138.635 51.928C138.583 51.6695 138.531 51.411 138.49 51.1629C133.92 54.3887 128.513 56.87 122.92 55.5466C121.689 55.2261 120.593 54.6885 119.632 54.0061C112.912 63.4352 72.693 64.1383 88.3772 55.0193C88.9872 54.6782 89.5042 55.588 88.9252 55.9498C87.8499 56.6529 86.5782 57.3146 86.082 58.4208C86.0406 58.5759 86.0613 58.6173 86.1337 58.7207C86.2784 58.9378 86.7643 59.1756 87.2399 59.3203C89.256 59.889 91.572 59.889 93.7948 59.889C100.484 59.7752 107.287 58.7207 113.439 56.0946C115.176 55.4019 117.171 54.0888 118.081 52.631C116.944 51.3697 116.168 49.8395 115.848 48.1853C108.104 45.1043 99.2641 45.9521 91.1377 44.0807C90.1969 43.8533 88.522 43.2123 88.522 41.7855C88.8942 38.1772 96.3796 35.1789 99.3675 33.8349C104.982 31.5706 112.302 29.2857 114.928 36.7608C115.352 37.8981 115.6 39.0353 115.713 40.2657C115.744 40.6069 115.496 40.9067 115.155 40.9377C114.804 40.9687 114.504 40.6999 114.483 40.3587C113.077 30.8883 106.905 32.5115 100.009 35.396C96.669 36.9469 92.8126 38.4977 90.507 41.4133C90.352 41.7131 90.3623 41.7648 90.4553 41.8062C91.0447 42.2197 92.3887 42.4369 93.2262 42.5919C98.2302 43.6362 109.2 43.4811 115.682 45.9728C115.734 44.9492 115.951 43.9153 116.365 42.8918C118.546 36.037 130.694 25.7912 136.009 34.8894C138.263 39.0147 138.521 43.5224 139.379 47.9268C139.627 47.7304 139.875 47.5339 140.113 47.3375C141.126 46.3967 142.543 47.9682 141.499 48.878C141.395 48.9607 141.302 49.0434 141.199 49.1158C141.437 49.1778 141.654 49.3226 141.788 49.5604C142.119 50.0773 142.067 50.739 142.067 51.256C142.026 52.9102 141.581 54.8746 141.695 56.4875C141.705 56.5495 141.716 56.5909 141.716 56.6115C142.253 56.4668 142.905 55.7534 143.318 55.2882C143.484 55.0814 143.794 55.04 144.001 55.2158L143.99 55.1951ZM138.087 48.8677C137.859 47.4512 137.663 46.0451 137.394 44.639C136.526 40.7206 135.812 34.2794 131.553 32.9871C125.773 32.253 119.921 38.3736 118.102 43.4707C117.657 44.608 117.502 45.7556 117.595 46.8516C118.66 47.4616 119.508 48.1956 120.045 49.0744C120.542 50.16 120.666 51.1733 120.469 52.1141C121.317 52.7758 122.32 53.2721 123.447 53.5615C128.565 54.7609 133.838 51.99 138.076 48.8677H138.087ZM196.585 57.0251C196.037 58.7827 194.103 59.3514 193.524 57.3353C193.152 55.8671 193.524 54.4093 193.648 53.0343L193.917 50.3875C193.989 49.4673 194.052 48.5368 194.093 47.596C188.748 51.8866 181.8 54.4714 174.976 52.7758C173.715 52.4966 172.36 51.99 171.337 51.1216C171.409 52.9826 171.389 54.7815 171.306 56.4461C171.192 57.7902 169.197 57.6764 169.238 56.322C169.414 48.9297 168.411 38.1979 162.693 33.0077C161.525 32.0876 160.15 31.6533 158.734 31.9118C154.195 32.8733 152.406 37.743 151.631 42.4782C151.807 43.4914 152.024 44.5046 152.324 45.4868C152.84 47.2858 154.05 51.2766 154.391 53.0756C154.608 54.4404 155.177 56.7666 153.233 57.2836C152.293 57.542 151.186 56.8597 150.762 56.229C149.036 53.7993 149.036 50.8941 149.036 48.0819C149.129 45.6212 149.305 43.0468 149.822 40.5655C149.708 38.8182 149.749 37.0503 149.946 35.303C149.987 34.9101 150.338 34.631 150.731 34.6826C151.135 34.724 151.414 35.0962 151.352 35.4891C151.352 35.6028 151.341 35.7269 151.331 35.8406C151.858 34.7033 152.51 33.6074 153.316 32.5942C155.777 29.3788 160.957 28.3862 164.151 31.1571C167.408 34.0003 169.3 38.2496 170.334 42.7987C172.557 35.6442 179.236 28.9652 187.29 31.4362C193.628 33.5143 195.768 39.3558 195.944 45.3318C195.975 45.4558 195.975 45.5799 195.944 45.7143C195.975 47.3478 195.861 48.9814 195.644 50.5529C195.489 52.2692 195.116 54.1715 194.941 55.8258C194.92 56.2083 194.93 56.6426 195.023 56.9734C195.116 56.839 195.23 56.6529 195.292 56.4771C195.623 55.9188 195.52 54.5954 196.502 54.7919C197.474 55.1331 196.802 56.322 196.605 57.0251H196.585ZM151.083 47.4926C151.073 47.7097 151.052 47.9268 151.042 48.1233C151.011 50.5116 150.959 53.086 152.251 55.04C152.437 55.2675 152.572 55.3812 152.696 55.4122C152.861 53.9958 152.313 52.3622 151.993 50.9458C151.993 50.9458 151.465 48.9711 151.073 47.4926H151.083ZM194.083 44.8768C194.01 43.2433 193.783 41.6408 193.266 40.1313C191.074 33.2972 183.123 30.7952 177.561 35.4167C174.252 38.2186 171.006 43.967 171.999 48.4231C172.391 49.5811 173.849 50.2944 175.462 50.646C182.079 52.3416 189.006 49.3122 194.083 44.8872V44.8768ZM269.195 12.1024C268.781 12.061 268.575 12.0714 268.285 12.0714C267.799 12.0714 266.434 12.1438 265.948 12.1644C262.568 12.3299 259.197 12.64 255.837 13.0432C255.909 12.3402 255.982 11.6372 256.054 10.9444C256.147 10.2621 255.651 9.6314 254.969 9.55903C254.296 9.48665 253.697 9.97258 253.624 10.655C253.531 11.5544 253.459 12.4539 253.387 13.3534C242.396 14.8215 231.572 17.3753 220.964 20.6114C220.219 20.8388 220.602 21.9244 221.295 21.7176C229.101 19.5568 236.999 17.6648 244.96 16.269C247.7 15.7934 250.461 15.4212 253.232 15.1317C253.097 16.8997 252.973 18.6676 252.88 20.4459C252.663 25.574 252.467 30.7332 252.663 35.8716C250.12 36.0784 247.576 36.2025 245.085 36.3576C244.154 36.3886 244.195 37.7947 245.116 37.7843C247.659 37.7016 250.202 37.6396 252.746 37.5155C252.983 41.6614 253.511 45.7867 254.534 49.8499C254.834 50.8941 256.406 50.4495 256.137 49.4156C255.279 45.4662 254.824 41.4443 254.648 37.4018C258.835 37.1226 262.992 36.585 267.044 35.2926C268.295 34.755 267.52 32.8837 266.259 33.3799C262.537 34.6723 258.587 35.303 254.596 35.6959C254.421 28.7688 254.989 21.7693 255.672 14.8939C259.125 14.5838 262.599 14.3666 266.062 14.1805C266.31 14.1805 266.631 14.1599 266.962 14.1599C266.745 14.439 266.579 14.6458 266.579 14.6458C265.762 15.721 267.375 16.972 268.213 15.9071C268.388 15.6073 270.187 13.5499 270.084 13.2604C270.156 12.7021 269.753 12.1851 269.195 12.1127V12.1024ZM308.121 34.7343C307.263 38.5804 302.672 37.9704 299.684 38.3116C295.476 38.6011 290.152 38.8182 285.055 38.994C284.993 40.7102 285.458 42.4058 286.678 43.7292C291.403 48.4541 302.683 49.2812 306.87 43.4707C307.046 43.2123 307.387 43.1399 307.645 43.3157C307.904 43.4811 307.966 43.8223 307.811 44.0807C305.474 47.6787 300.956 48.8883 296.914 48.909C291.992 48.8056 285.727 47.1514 283.887 41.9716C283.597 40.9894 283.463 40.0072 283.463 39.0457C280.837 39.1284 278.303 39.2111 276.07 39.2731C275.191 39.3042 275.119 37.9394 276.019 37.8981C278.417 37.7533 280.971 37.6292 283.576 37.5052C284.538 31.2811 291.103 26.2461 297.503 26.763C301.783 27.0835 308.617 29.2857 308.111 34.7343H308.121ZM305.846 32.2737C304.916 30.8883 303.231 29.9578 301.494 29.3684C296.252 27.3834 289.924 28.9756 286.812 33.7728C286.078 34.8481 285.52 36.1198 285.241 37.4328C291.589 37.133 298.206 36.8125 303.913 36.2438C306.146 36.0887 307.19 34.1657 305.836 32.2737H305.846ZM330.246 27.9623C330.05 28.2932 329.636 28.3656 329.316 28.1898C326.566 26.9801 323.154 27.1869 320.383 28.3862C318.17 29.1927 316.62 31.1777 315.803 33.535C317.074 37.3501 318.315 41.1755 319.328 45.0836C319.442 45.8797 318.646 46.5104 317.922 46.3036C315.451 45.3628 314.149 42.747 313.632 40.3277C313.166 37.7533 313.311 35.1686 314.076 32.894C313.177 29.9061 312.319 27.0835 311.781 25.2846C311.564 24.5608 312.66 24.1886 312.908 24.9227C313.57 26.9491 314.252 28.9549 314.924 30.971C316.475 28.1588 319.184 26.1323 323.071 25.7291C325.439 25.4396 327.879 25.7498 330.009 27.0525C330.329 27.2489 330.422 27.6625 330.236 27.9727L330.246 27.9623ZM315.172 36.5437C314.955 39.2525 315.627 42.0026 317.292 43.8119C316.795 41.9923 316.01 39.3455 315.172 36.5437ZM340.006 45.0009C340.099 45.218 340.203 45.3007 340.11 45.766C339.81 46.6655 338.776 46.5828 338.424 46.0141C337.876 45.2077 337.339 44.2979 336.894 43.4397C334.826 39.5006 333.11 34.9928 333.689 31.0847C333.348 28.9549 333.482 26.8251 334.713 24.7883C335.116 24.0956 336.16 24.7159 335.736 25.4086C335.374 26.1013 335.147 26.8147 335.023 27.5281C335.922 26.1634 337.287 24.9434 339.252 23.9508C342.488 22.2242 346.261 21.6866 349.88 22.1725C350.201 22.2242 350.428 22.5137 350.376 22.8446C350.335 23.1547 350.045 23.3718 349.746 23.3512C344.938 23.3512 339.644 24.8607 336.605 28.7481C335.881 29.9578 335.581 31.2501 335.55 32.5838C335.798 33.3696 336.098 34.1554 336.408 34.9101C337.566 38.1565 338.724 41.8889 340.017 45.0216L340.006 45.0009ZM338.393 45.9418C338.362 45.8797 338.342 45.8073 338.321 45.7453C338.331 45.7867 338.342 45.828 338.362 45.8694C338.424 45.9934 338.393 45.9314 338.404 45.9418H338.393ZM379.087 40.4828C379.346 40.793 379.294 41.2582 378.994 41.5167C375.924 44.1221 372.047 45.7143 368.045 46.1175C359.557 47.0997 351.1 42.2094 352.93 33.1421C351.762 33.1421 350.593 33.1421 349.425 33.1421C348.577 33.1421 348.536 31.8394 349.404 31.8084C350.707 31.7464 352.02 31.6844 353.323 31.6223C355.37 25.5223 362.349 23.1857 368.232 22.9686C371.809 22.8135 375.851 23.9818 378.085 27.0422C380.659 30.7228 375.19 31.643 372.646 31.9635C366.753 32.8113 360.819 33.0491 354.874 33.1215C352.02 45.9728 370.723 47.0894 378.023 40.3794C378.343 40.1209 378.808 40.1623 379.067 40.4828H379.087ZM355.37 31.5293C361.077 31.2398 366.774 30.8676 372.367 30.0198C373.773 29.7406 375.676 29.6062 376.72 28.7378C373.029 22.1829 358.296 24.7056 355.37 31.5189V31.5293ZM390.357 51.0699C389.333 49.4673 389.054 47.1514 388.754 45.2077C387.927 38.8906 387.72 32.5218 387.348 26.1323C386.862 17.5407 385.477 9.06276 383.885 0.626184C383.668 -0.376693 382.21 -0.0872028 382.324 0.874318L383.843 13.5809C385.012 22.0795 385.125 30.5471 385.953 39.087C386.449 43.1399 386.728 47.3789 388.444 51.1526L388.961 51.9797C389.561 52.8999 390.946 51.9797 390.357 51.0699Z" fill="#024F3C"/>
</svg>