<svg width="136" height="135" viewBox="0 0 136 135" fill="none" xmlns="http://www.w3.org/2000/svg">
<g id="Logos_empresas">
<g id="Vector">
<path d="M85.9726 61.7233C85.3651 61.2752 84.4148 61.0037 83.4889 61.0191C82.4875 61.0302 81.526 61.3524 80.8584 61.8778V55.5978H77.7249V76.0823H80.8584V65.392C80.8584 64.6481 81.4882 63.8269 82.6588 63.7761C83.1751 63.7563 83.8984 63.977 84.2634 64.5178C84.6529 65.094 84.6284 65.8555 84.6284 66.6921V76.0845H87.7575V66.5729C87.7575 63.7695 87.388 62.7696 85.9726 61.7255" fill="#024F3C"/>
<path d="M60.4816 68.7538C60.4816 70.7603 60.4171 71.3254 60.4015 71.4998C60.2947 72.6101 59.8162 73.7889 58.5098 73.7889C57.2035 73.7889 56.6738 72.5306 56.6182 71.4446C56.6182 71.438 56.538 70.7603 56.538 68.7538C56.538 66.7473 56.6182 65.9107 56.6182 65.9041C56.6337 64.7739 57.2257 63.6415 58.5098 63.6415C59.794 63.6415 60.3859 64.7739 60.3993 65.893C60.3993 65.9107 60.4794 66.7473 60.4794 68.7538M63.5106 66.3367C63.0677 61.9573 60.5595 61.0191 58.5032 61.0191C55.5877 61.0191 53.8096 62.8579 53.4913 66.3323C53.4668 66.6104 53.4201 67.1203 53.4045 68.7538C53.3934 69.9458 53.4713 70.9259 53.4846 71.1709C53.6872 74.4135 55.561 76.4112 58.5032 76.4112C61.4453 76.4112 63.3147 74.3782 63.5195 71.1687C63.5328 70.9391 63.5996 69.9458 63.5996 68.7516C63.5996 68.213 63.5506 66.7473 63.5106 66.3345V66.3367Z" fill="#024F3C"/>
<path d="M92.9896 66.9128C93.0119 66.2352 93.0119 66.0917 93.0253 65.8952C93.1143 64.6679 93.6662 63.6547 94.9347 63.6437C96.4392 63.6327 96.7908 65.094 96.8442 65.9019C96.8732 66.3257 96.9043 66.6104 96.9021 66.9128H92.9896ZM96.8576 71.0164C96.8576 71.0164 96.8643 71.2437 96.8309 71.5241C96.7441 72.2481 96.4548 73.7911 94.9281 73.7911C93.6284 73.7911 93.1321 72.6189 93.0453 71.4534C93.0252 71.1201 92.9652 70.7537 92.9696 69.4933H99.9555C99.9555 69.4933 99.9666 68.4624 99.9488 67.8422C99.9399 67.5993 99.9266 67.1932 99.8665 66.3367C99.7708 65.0233 99.2745 63.5863 98.52 62.6614C97.641 61.5864 96.3991 61.0213 94.9281 61.0213C92.1061 61.0213 90.3435 62.8402 89.9941 66.3367C89.9652 66.648 89.9118 67.0828 89.9118 68.756C89.9118 69.948 89.9785 70.9435 89.9919 71.1731C90.1833 74.3628 92.0839 76.4134 94.9281 76.4134C97.7723 76.4134 99.6706 74.4158 99.8665 71.0142H96.8576V71.0164Z" fill="#024F3C"/>
<path d="M43.4966 45.1414H94.4184L113.889 67.7362L94.4229 90.022H43.4943L23.9477 67.6589L43.4966 45.1414ZM95.6513 42.6316H42.2659L20.605 67.5795L42.2681 92.3684H95.6491L117.237 67.6611L95.6513 42.6316Z" fill="#024F3C"/>
<path d="M44.1264 58.3791H45.6086C47.2221 58.3791 48.0945 59.2267 48.1345 60.741C48.1367 60.8536 48.1523 60.9794 48.1523 61.2156C48.1523 61.4893 48.1479 61.5864 48.1345 61.6924C48.0455 62.5908 47.6471 64.1624 45.7599 64.1624H44.1264V58.3769M51.5507 74.8131L51.228 69.7824C51.0878 67.5331 50.498 66.2087 49.3252 65.5288C50.1731 65.0233 51.268 63.7717 51.2591 61.1604C51.2436 57.1849 48.7532 55.7898 45.8222 55.7567H41.0329V76.0801H44.1264V66.7848H45.8489C46.8437 66.7848 47.9676 67.6479 48.1367 70.0716L48.4594 74.8307C48.4839 75.504 48.613 76.0823 48.613 76.0823H51.7065C51.7065 76.0823 51.5729 75.5239 51.5507 74.8153V74.8131Z" fill="#024F3C"/>
<path d="M72.6663 70.8751C72.6552 71.1025 72.6396 71.3033 72.6285 71.4468C72.5394 72.5836 72.1366 73.7911 70.7368 73.7911C69.4326 73.7911 68.9163 72.4799 68.8206 71.5175C68.7628 70.9347 68.7761 70.48 68.765 68.756C68.7516 66.7495 68.8162 66.233 68.8451 65.9063C68.9564 64.6392 69.4527 63.6547 70.7368 63.6437C72.0587 63.6349 72.6129 64.7761 72.6285 65.8952C72.6285 65.9063 72.6552 66.1778 72.6774 66.7716H75.7753C75.7664 66.5685 75.7575 66.3963 75.7486 66.2948C75.3948 62.05 72.7887 61.0213 70.7301 61.0213C67.8147 61.0213 66.0387 62.8601 65.7183 66.3345C65.6938 66.6126 65.6493 67.1225 65.6337 68.756C65.6226 69.948 65.7005 70.9281 65.716 71.1731C65.9163 74.4158 67.7924 76.4046 70.7323 76.4134C73.7791 76.4245 75.4571 74.5813 75.7509 71.1709C75.762 71.0451 75.7776 70.9612 75.7687 70.8751H72.6685" fill="#024F3C"/>
</g>
</g>
</svg>
