<svg width="76" height="19" viewBox="0 0 76 19" fill="none" xmlns="http://www.w3.org/2000/svg">
<g id="Vector">
<path d="M1.89748 8.02981C1.12249 7.11693 0.783262 6.06063 0.877033 4.85815C0.979078 3.66395 1.48654 2.67936 2.39667 1.90437C3.21579 1.20109 4.15625 0.85083 5.22083 0.85083C6.48122 0.85083 7.58165 1.36933 8.52211 2.40356C8.68207 2.59111 8.82273 2.78692 8.94684 2.99101C9.03233 3.12891 9.07646 3.28336 9.07646 3.45711C9.07646 3.69705 8.99097 3.90114 8.81997 4.06938C8.64898 4.24037 8.44489 4.32587 8.2077 4.32587C7.93191 4.32587 7.73058 4.24037 7.59819 4.06662C7.46857 3.89287 7.33343 3.71636 7.19553 3.53433C6.72392 2.9855 6.13371 2.67936 5.42492 2.62144C4.70785 2.56353 4.07351 2.76762 3.52468 3.23371C2.97309 3.69981 2.66971 4.29001 2.61179 4.99881C2.55388 5.71588 2.76072 6.35021 3.22958 6.89905C3.61293 7.26861 4.23623 7.56647 5.09672 7.78987C6.61084 8.12358 7.76091 8.73861 8.54969 9.63495C9.36881 10.6058 9.77698 11.7062 9.77698 12.9362C9.77698 13.1017 9.76871 13.2699 9.75492 13.4354C9.63909 14.8696 9.03509 16.05 7.94018 16.9767C6.96386 17.8096 5.8524 18.226 4.6058 18.226C3.05031 18.226 1.70994 17.611 0.587447 16.3809C0.435758 16.2155 0.29786 16.0362 0.173752 15.8486C0.0579173 15.697 0 15.5232 0 15.3274C0 15.0874 0.0854969 14.8834 0.256491 14.7151C0.427485 14.5469 0.631574 14.4586 0.868759 14.4586C1.18041 14.4586 1.42587 14.5938 1.60789 14.8613C1.69339 14.9992 1.79544 15.1288 1.91127 15.2529C2.5263 15.9921 3.31507 16.4002 4.2776 16.4802C5.23186 16.5519 6.0758 16.2789 6.80666 15.6611C7.53752 15.0433 7.94294 14.2545 8.02292 13.3003C8.1029 12.3378 7.83538 11.4911 7.22035 10.7602C6.68531 10.159 5.84964 9.70941 4.7106 9.41431C3.61018 9.2185 2.66971 8.75792 1.88645 8.03533L1.89748 8.02981Z" fill="#024F3C"/>
<path d="M22.8112 17.3599C22.8112 17.5999 22.7257 17.8039 22.5547 17.9722C22.3837 18.1432 22.1796 18.2259 21.9424 18.2259C21.7052 18.2259 21.4984 18.1404 21.3301 17.9722C21.1591 17.8012 21.0736 17.5971 21.0736 17.3599V16.6539C19.987 17.7047 18.6852 18.2287 17.1656 18.2287C15.646 18.2287 14.278 17.6771 13.1748 16.5739C12.0716 15.4707 11.52 14.1386 11.52 12.5831V6.93757C11.52 6.69762 11.6055 6.49353 11.7765 6.3253C11.9475 6.1543 12.1516 6.06881 12.3888 6.06881C12.626 6.06881 12.8328 6.1543 13.0011 6.3253C13.1721 6.49629 13.2576 6.70038 13.2576 6.93757V12.5831C13.2576 13.6615 13.6382 14.5826 14.4021 15.3466C15.1661 16.1106 16.0872 16.4912 17.1656 16.4912C18.244 16.4912 19.1651 16.1106 19.9291 15.3466C20.693 14.5826 21.0736 13.6615 21.0736 12.5831V6.93757C21.0736 6.69762 21.1591 6.49353 21.3301 6.3253C21.5011 6.15706 21.7052 6.06881 21.9424 6.06881C22.1796 6.06881 22.3864 6.1543 22.5547 6.3253C22.7229 6.49629 22.8112 6.70038 22.8112 6.93757V17.3627V17.3599Z" fill="#024F3C"/>
<path d="M26.6999 12.1474C26.0407 11.902 25.5801 11.6455 25.3209 11.3752C24.8079 10.8677 24.5487 10.2555 24.5487 9.54116C24.5487 8.82685 24.8162 8.19803 25.3512 7.66299C26.3937 6.59841 27.7534 6.06612 29.433 6.06612C31.2505 6.06612 32.806 6.79423 34.1022 8.24767C34.2181 8.38557 34.2732 8.55656 34.265 8.7579C34.265 8.99784 34.1795 9.20193 34.0085 9.37016C33.8375 9.54116 33.6334 9.62666 33.3962 9.62666C33.159 9.62666 32.966 9.54943 32.8198 9.39774C32.6736 9.24606 32.5688 9.1385 32.5054 9.0723C31.6587 8.22561 30.6327 7.80088 29.433 7.80088C28.2333 7.80088 27.2708 8.17597 26.5565 8.92889C26.3827 9.1385 26.2944 9.38947 26.2944 9.67906C26.3165 10.0183 26.493 10.25 26.8267 10.3741L32.1689 12.1447C32.8281 12.3901 33.2886 12.6466 33.5479 12.9169C34.0609 13.4244 34.3201 14.0366 34.3201 14.751C34.3201 15.4653 34.0526 16.0941 33.5176 16.6291C32.475 17.6937 31.1126 18.226 29.4358 18.226C27.6128 18.226 26.0545 17.4979 24.7665 16.0444C24.659 15.8928 24.6038 15.7218 24.6038 15.5342C24.6038 15.2943 24.6893 15.0902 24.8603 14.9219C25.0313 14.751 25.2354 14.6655 25.4726 14.6655C25.7098 14.6655 25.9028 14.7427 26.049 14.8944C26.1924 15.0461 26.3 15.1536 26.3634 15.2198C27.2101 16.0665 28.2361 16.4912 29.4358 16.4912C30.6355 16.4912 31.5953 16.1161 32.3123 15.3605C32.4861 15.1509 32.5743 14.8999 32.5743 14.6103C32.5523 14.2711 32.3758 14.0394 32.042 13.9153L26.6999 12.1447V12.1474Z" fill="#024F3C"/>
<path d="M46.4827 16.4029C45.2665 17.6192 43.8185 18.226 42.1389 18.226C40.4593 18.226 39.0252 17.633 37.8393 16.4443C36.6534 15.2556 36.0576 13.8243 36.0576 12.1447C36.0576 10.4651 36.6506 9.03091 37.8393 7.84499C39.028 6.65906 40.4593 6.06334 42.1389 6.06334C43.8185 6.06334 45.2527 6.6563 46.4386 7.84499C47.6245 9.03367 48.2203 10.4651 48.2203 12.1447V17.3572C48.2203 17.5971 48.1348 17.8012 47.9638 17.9695C47.7928 18.1405 47.5887 18.2232 47.3515 18.2232C47.1143 18.2232 46.9075 18.1377 46.7392 17.9695C46.5682 17.7985 46.4827 17.5944 46.4827 17.3572V16.4029ZM42.1389 7.80362C40.9365 7.80362 39.9133 8.22834 39.0666 9.07504C38.2199 9.92173 37.7952 10.9477 37.7952 12.1474C37.7952 13.3471 38.2199 14.3731 39.0666 15.2198C39.9133 16.0665 40.9392 16.4912 42.1389 16.4912C43.3387 16.4912 44.3646 16.0665 45.2113 15.2198C46.058 14.3731 46.4827 13.3471 46.4827 12.1474C46.4827 10.9477 46.058 9.92173 45.2113 9.07504C44.3646 8.22834 43.3387 7.80362 42.1389 7.80362Z" fill="#024F3C"/>
<path d="M49.9578 6.93488C49.9578 6.69494 50.0433 6.49085 50.2143 6.32261C50.3853 6.15162 50.5894 6.06612 50.8265 6.06612C51.0637 6.06612 51.2706 6.15162 51.4388 6.32261C51.6098 6.49361 51.6953 6.6977 51.6953 6.93488V7.64092C52.7819 6.59014 54.0837 6.06612 55.6033 6.06612C57.123 6.06612 58.4909 6.61772 59.5941 7.7209C60.6973 8.82409 61.2489 10.1562 61.2489 11.7117V17.36C61.2489 17.5999 61.1634 17.804 60.9924 17.9723C60.8214 18.1433 60.6173 18.226 60.3801 18.226C60.1429 18.226 59.9361 18.1405 59.7679 17.9723C59.5969 17.8013 59.5114 17.5972 59.5114 17.36V11.7117C59.5114 10.6333 59.1308 9.71215 58.3668 8.9482C57.6029 8.18424 56.6817 7.80364 55.6033 7.80364C54.525 7.80364 53.6038 8.18424 52.8399 8.9482C52.0759 9.71215 51.6953 10.6333 51.6953 11.7117V17.36C51.6953 17.5999 51.6098 17.804 51.4388 17.9723C51.2678 18.1433 51.0637 18.226 50.8265 18.226C50.5894 18.226 50.3825 18.1405 50.2143 17.9723C50.046 17.804 49.9578 17.5972 49.9578 17.36V6.93488Z" fill="#024F3C"/>
<path d="M73.4143 16.4029C72.198 17.6192 70.7501 18.226 69.0705 18.226C67.3909 18.226 65.9567 17.633 64.7708 16.4443C63.5849 15.2556 62.9892 13.8243 62.9892 12.1447C62.9892 10.4651 63.5821 9.03091 64.7708 7.84499C65.9595 6.65906 67.3909 6.06334 69.0705 6.06334C70.7501 6.06334 72.1842 6.6563 73.3702 7.84499C74.5561 9.03367 75.1518 10.4651 75.1518 12.1447V17.3572C75.1518 17.5971 75.0663 17.8012 74.8981 17.9695C74.7271 18.1405 74.523 18.2232 74.2858 18.2232C74.0486 18.2232 73.8418 18.1377 73.6708 17.9695C73.4998 17.7985 73.4143 17.5944 73.4143 17.3572V16.4029ZM69.0705 7.80362C67.868 7.80362 66.8448 8.22834 65.9981 9.07504C65.1514 9.92173 64.7267 10.9477 64.7267 12.1474C64.7267 13.3471 65.1514 14.3731 65.9981 15.2198C66.8448 16.0665 67.8708 16.4912 69.0705 16.4912C70.2702 16.4912 71.2962 16.0665 72.1429 15.2198C72.9896 14.3731 73.4143 13.3471 73.4143 12.1474C73.4143 10.9477 72.9896 9.92173 72.1429 9.07504C71.2962 8.22834 70.2702 7.80362 69.0705 7.80362Z" fill="#024F3C"/>
</g>
</svg>
