<svg width="53" height="19" viewBox="0 0 53 19" fill="none" xmlns="http://www.w3.org/2000/svg">
<g id="Vector">
<path d="M9.88419 15.275C10.1241 15.275 10.3282 15.3605 10.4965 15.5315C10.6675 15.7025 10.7502 15.9065 10.7502 16.1437C10.7502 16.3809 10.6675 16.5878 10.4992 16.7615C9.37672 17.7378 8.05566 18.2287 6.53602 18.2287C4.85642 18.2287 3.42228 17.6358 2.23635 16.4471C1.04767 15.2612 0.454712 13.827 0.454712 12.1474C0.454712 10.4678 1.04767 9.03369 2.23635 7.84777C3.42228 6.66184 4.85642 6.06612 6.53602 6.06612C8.21562 6.06612 9.64976 6.65909 10.8357 7.84777C12.0216 9.03645 12.6173 10.4678 12.6173 12.1474C12.6173 12.3874 12.5318 12.5915 12.3636 12.7597C12.1954 12.9279 11.9885 13.0162 11.7513 13.0162H2.27221C2.43217 13.8491 2.82931 14.5827 3.4664 15.2198C4.3131 16.0665 5.33907 16.4912 6.53878 16.4912C7.62542 16.4912 8.55761 16.1465 9.34087 15.4598C9.50084 15.3356 9.68011 15.275 9.88419 15.275ZM10.8081 11.2787C10.6482 10.4458 10.251 9.71215 9.61391 9.07506C8.76722 8.22837 7.74126 7.80364 6.54154 7.80364C5.34183 7.80364 4.31586 8.22837 3.46917 9.07506C2.83208 9.71215 2.43493 10.4458 2.27497 11.2787H10.8109H10.8081Z" fill="#2EB593"/>
<path d="M14.3576 6.93488C14.3576 6.69494 14.4431 6.49085 14.6141 6.32261C14.7851 6.15162 14.9892 6.06612 15.2264 6.06612C15.4636 6.06612 15.6704 6.15162 15.8386 6.32261C16.0096 6.49361 16.0924 6.6977 16.0924 6.93488V7.88914C17.3086 6.67288 18.7566 6.06612 20.4362 6.06612C21.2829 6.06612 22.0606 6.2123 22.7694 6.49912C22.899 6.54877 23.0204 6.62599 23.1279 6.72803C23.2934 6.90179 23.3789 7.10863 23.3789 7.34582C23.3789 7.583 23.2934 7.78985 23.1252 7.95809C22.9542 8.12908 22.7501 8.21458 22.5129 8.21458C22.375 8.21458 22.2482 8.187 22.1323 8.12908C21.6193 7.9112 21.054 7.80364 20.4389 7.80364C19.2365 7.80364 18.2133 8.22837 17.3666 9.07506C16.5199 9.92176 16.0951 10.9477 16.0951 12.1474V17.36C16.0951 17.5999 16.0096 17.804 15.8414 17.9723C15.6704 18.1433 15.4663 18.226 15.2291 18.226C14.992 18.226 14.7851 18.1405 14.6169 17.9723C14.4486 17.804 14.3604 17.5972 14.3604 17.36V6.93488H14.3576Z" fill="#2EB593"/>
<path d="M24.7827 6.93488C24.7827 6.69494 24.8682 6.49085 25.0392 6.32261C25.2102 6.15162 25.4143 6.06612 25.6515 6.06612C25.8887 6.06612 26.0955 6.15162 26.2637 6.32261C26.4347 6.49361 26.5175 6.6977 26.5175 6.93488V7.88914C27.7337 6.67288 29.1817 6.06612 30.8613 6.06612C31.708 6.06612 32.4857 6.2123 33.1945 6.49912C33.3241 6.54877 33.4455 6.62599 33.553 6.72803C33.7185 6.90179 33.804 7.10863 33.804 7.34582C33.804 7.583 33.7185 7.78985 33.5503 7.95809C33.3793 8.12908 33.1752 8.21458 32.938 8.21458C32.8001 8.21458 32.6732 8.187 32.5574 8.12908C32.0444 7.9112 31.479 7.80364 30.864 7.80364C29.6615 7.80364 28.6383 8.22837 27.7917 9.07506C26.945 9.92176 26.5202 10.9477 26.5202 12.1474V17.36C26.5202 17.5999 26.4347 17.804 26.2665 17.9723C26.0955 18.1433 25.8914 18.226 25.6542 18.226C25.417 18.226 25.2102 18.1405 25.042 17.9723C24.8737 17.804 24.7855 17.5972 24.7855 17.36V6.93488H24.7827Z" fill="#2EB593"/>
<path d="M44.6318 15.275C44.8717 15.275 45.0758 15.3605 45.2441 15.5315C45.4151 15.7025 45.4978 15.9065 45.4978 16.1437C45.4978 16.3809 45.4151 16.5878 45.2468 16.7615C44.1243 17.7378 42.8033 18.2287 41.2836 18.2287C39.604 18.2287 38.1699 17.6358 36.984 16.4471C35.7953 15.2612 35.2023 13.827 35.2023 12.1474C35.2023 10.4678 35.7953 9.03369 36.984 7.84777C38.1699 6.66184 39.604 6.06612 41.2836 6.06612C42.9632 6.06612 44.3974 6.65909 45.5833 7.84777C46.7692 9.03645 47.3649 10.4678 47.3649 12.1474C47.3649 12.3874 47.2794 12.5915 47.1112 12.7597C46.943 12.9279 46.7361 13.0162 46.4989 13.0162H37.0198C37.1798 13.8491 37.5769 14.5827 38.214 15.2198C39.0607 16.0665 40.0867 16.4912 41.2864 16.4912C42.373 16.4912 43.3052 16.1465 44.0885 15.4598C44.2484 15.3356 44.4277 15.275 44.6318 15.275ZM45.5557 11.2787C45.3957 10.4458 44.9986 9.71215 44.3615 9.07506C43.5148 8.22837 42.4889 7.80364 41.2891 7.80364C40.0894 7.80364 39.0635 8.22837 38.2168 9.07506C37.5797 9.71215 37.1825 10.4458 37.0226 11.2787H45.5585H45.5557Z" fill="#2EB593"/>
<path d="M49.1052 1.72227C49.1052 1.48233 49.1907 1.27824 49.3617 1.11001C49.5327 0.941771 49.7368 0.853516 49.974 0.853516C50.2112 0.853516 50.418 0.939013 50.5862 1.11001C50.7572 1.281 50.84 1.48509 50.84 1.72227V16.4912H51.7087C51.9487 16.4912 52.1528 16.5767 52.321 16.7477C52.4892 16.9187 52.5747 17.1227 52.5747 17.3599C52.5747 17.5971 52.4892 17.804 52.321 17.9722C52.15 18.1432 51.9459 18.2259 51.7087 18.2259H49.9712C49.7313 18.2259 49.5272 18.1404 49.3589 17.9722C49.1907 17.804 49.1025 17.5971 49.1025 17.3599V1.72227H49.1052Z" fill="#2EB593"/>
</g>
</svg>
