<svg width="18" height="24" viewBox="0 0 18 24" fill="none" xmlns="http://www.w3.org/2000/svg">
<g id="Vector">
<path d="M8.24538 19.5655C7.8478 17.9896 6.24801 17.0344 4.67215 17.432C3.0963 17.8296 2.14112 19.4294 2.53871 21.0052C2.93629 22.5811 4.53607 23.5363 6.11192 23.1387C7.68778 22.7411 8.64296 21.1413 8.24538 19.5655Z" fill="#2EB593"/>
<path d="M9.05163 9.18197L3.34228 10.6224C1.76643 11.02 0.811248 12.6198 1.20883 14.1956C1.60641 15.7715 3.2062 16.7267 4.78206 16.3291L10.4914 14.8886C12.0673 14.4911 13.0224 12.8913 12.6249 11.3154C12.2273 9.73957 10.6275 8.78439 9.05163 9.18197Z" fill="#2EB593"/>
<path d="M13.7914 0.861597L2.37535 3.74182C0.799499 4.1394 -0.155675 5.73918 0.241907 7.31504C0.639489 8.89089 2.23927 9.84607 3.81513 9.44849L15.2311 6.56827C16.807 6.17069 17.7622 4.5709 17.3646 2.99505C16.967 1.41919 15.3672 0.464015 13.7914 0.861597Z" fill="#2EB593"/>
</g>
</svg>
